<?xml version="1.0" encoding="UTF-8"?>
<svg width="800px" height="800px" viewBox="0 0 800 800" version="1.1" xmlns="http://www.w3.org/2000/svg" xmlns:xlink="http://www.w3.org/1999/xlink">
    <!-- Generator: Sketch 52.3 (67297) - http://www.bohemiancoding.com/sketch -->
    <title>event-promo-niveles copy</title>
    <desc>Created with Sketch.</desc>
    <defs>
        <circle id="path-1" cx="400" cy="400" r="400"></circle>
    </defs>
    <g id="event-promo-niveles-copy" stroke="none" stroke-width="1" fill="none" fill-rule="evenodd">
        <g id="Group-2">
            <mask id="mask-2" fill="white">
                <use xlink:href="#path-1"></use>
            </mask>
            <use id="Oval" fill="#D8D8D8" xlink:href="#path-1"></use>
            <g id="Group" mask="url(#mask-2)">
                <polygon id="Clip-6-Copy" points="3.97903932e-13 5.68434189e-14 799.977977 5.68434189e-14 799.977977 799.407828 3.97903932e-13 799.407828"></polygon>
                <polygon id="Fill-5-Copy" fill="#DFE1E5" points="1.70530257e-13 799.408688 799.409594 799.408688 799.409594 1.13686838e-13 1.70530257e-13 1.13686838e-13"></polygon>
                <path d="M576.363115,318.439 C576.363115,343.499745 556.04759,363.81527 530.986846,363.81527 C505.924381,363.81527 485.608856,343.499745 485.608856,318.439 C485.608856,293.378256 505.924381,273.062731 530.986846,273.062731 C556.04759,273.062731 576.363115,293.378256 576.363115,318.439" id="Fill-7-Copy" fill="#DF382B"></path>
                <path d="M183.743189,309.582912 C183.743189,334.643656 163.427664,354.960901 138.3652,354.960901 C113.304455,354.960901 92.9889299,334.643656 92.9889299,309.582912 C92.9889299,284.522167 113.304455,264.206642 138.3652,264.206642 C163.427664,264.206642 183.743189,284.522167 183.743189,309.582912" id="Fill-8-Copy" fill="#FABB05"></path>
                <path d="M449.425846,150.173318 C449.425846,175.234062 429.110321,195.551307 404.049576,195.551307 C378.987112,195.551307 358.671587,175.234062 358.671587,150.173318 C358.671587,125.112573 378.987112,104.797048 404.049576,104.797048 C429.110321,104.797048 449.425846,125.112573 449.425846,150.173318" id="Fill-9-Copy" fill="#4285F4"></path>
                <path d="M694.444296,150.173318 C694.444296,175.234062 674.128771,195.551307 649.068027,195.551307 C624.005562,195.551307 603.690037,175.234062 603.690037,150.173318 C603.690037,125.112573 624.005562,104.797048 649.068027,104.797048 C674.128771,104.797048 694.444296,125.112573 694.444296,150.173318" id="Fill-10-Copy" fill="#FFFFFF"></path>
                <path d="M48.7084871,800.408593 C48.7084871,635.516083 202.784511,501.845018 392.847841,501.845018 C582.90945,501.845018 736.985474,635.516083 736.985474,800.408593 L48.7084871,800.408593 Z" id="Fill-11-Copy" fill="#34A853"></path>
                <path d="M244.429334,627.312522 C235.76789,632.314008 224.588503,629.317932 219.588738,620.656488 L141.167921,484.826942 C136.166436,476.165497 139.162511,464.987831 147.823956,459.986345 C156.485401,454.98658 167.663067,457.980935 172.664553,466.64238 L251.085369,602.471926 C256.085135,611.13337 253.090779,622.311037 244.429334,627.312522" id="Fill-12-Copy" fill="#34A853"></path>
                <path d="M543.395912,627.312522 C534.734467,622.311037 531.738392,611.13337 536.739877,602.471926 L615.160693,466.64238 C620.162179,457.980935 631.339845,454.98658 640.00129,459.986345 C648.662735,464.987831 651.65881,476.165497 646.657325,484.826942 L568.236509,620.656488 C563.235023,629.317932 552.057357,632.314008 543.395912,627.312522" id="Fill-13-Copy" fill="#34A853"></path>
                <path d="M284.578835,638.231237 C284.578835,656.491475 269.775608,671.296422 251.51365,671.296422 C233.253412,671.296422 218.450185,656.491475 218.450185,638.231237 C218.450185,619.970999 233.253412,605.166052 251.51365,605.166052 C269.775608,605.166052 284.578835,619.970999 284.578835,638.231237" id="Fill-14-Copy" fill="#FFFFFF"></path>
                <path d="M576.829758,639.707252 C576.829758,657.96921 562.02653,672.772437 543.764572,672.772437 C525.504335,672.772437 510.701107,657.96921 510.701107,639.707252 C510.701107,621.447014 525.504335,606.642066 543.764572,606.642066 C562.02653,606.642066 576.829758,621.447014 576.829758,639.707252" id="Fill-15-Copy" fill="#FFFFFF"></path>
            </g>
        </g>
    </g>
</svg>