<?xml version="1.0" encoding="UTF-8"?>
<svg width="400px" height="47px" viewBox="0 0 400 47" version="1.1" xmlns="http://www.w3.org/2000/svg" xmlns:xlink="http://www.w3.org/1999/xlink">
    <!-- Generator: Sketch 52.3 (67297) - http://www.bohemiancoding.com/sketch -->
    <title>logo-blanco</title>
    <desc>Created with Sketch.</desc>
    <defs>
        <polygon id="path-1" points="374.172305 12.7457681 398.875633 12.7457681 398.875633 42.920558 374.172305 42.920558"></polygon>
    </defs>
    <g id="logo-blanco" stroke="none" stroke-width="1" fill="none" fill-rule="evenodd">
        <polygon id="Fill-1" fill="#FFFFFF" points="9.98046875 47 18.5125777 47 22.6625977 39.0004883 18.6979409 32.0158108"></polygon>
        <polygon id="Fill-2" fill="#FFFFFF" points="0 47 8.42900798 47 17.9620035 30.861868 13.8283951 23.5"></polygon>
        <polygon id="Fill-5" fill="#FFFFFF" points="23.2831893 38.0147059 27.558153 30.7579025 27.5613126 30.7515396 10.2666016 0 2 0"></polygon>
        <path d="M31.1001727,20.4529657 L19.5019531,7.93254351e-14 L11.4777735,-0.0887009804 L28.2654922,29.5289767 L31.0525043,24.8436642 C31.8565112,23.4941422 31.8755786,21.8183272 31.1001727,20.4529657 Z" id="Fill-6" fill="#FFFFFF"></path>
        <path d="M100.417789,35.1396032 C108.352735,35.1396032 113.270121,30.7762061 113.270121,22.5858181 C113.270121,14.4424833 108.352735,10.032033 100.417789,10.032033 L94.5378238,10.032033 L94.5378238,35.1396032 L100.417789,35.1396032 Z M89.0283247,4.57386561 L100.22464,4.57386561 C111.623604,4.57386561 118.77962,12.0678667 118.77962,22.5858181 C118.77962,33.1508226 111.620438,40.5977706 100.22464,40.5977706 L89.0283247,40.5977706 L89.0283247,4.57386561 Z" id="Fill-35" fill="#FFFFFF"></path>
        <path d="M84.4310593,20.9505637 L66.9906448,20.9505637 L66.9906448,26.2989404 L79.2856937,26.2989404 C78.8803972,29.0280241 77.9273172,31.1579641 76.496114,32.5758329 C74.6722798,34.3826745 71.8288716,36.3683182 66.8354922,36.3683182 C59.134859,36.3683182 53.1124064,30.2169008 53.1124064,22.5880139 C53.1124064,14.959127 59.134859,8.81084649 66.8354922,8.81084649 C70.9866149,8.81084649 74.0231721,10.4294755 76.261802,12.5092255 L79.9506333,8.85789966 C76.822251,5.89668699 72.667962,3.6318612 66.8354922,3.6318612 C56.2882844,3.62872432 47.4192573,12.135937 47.4192573,22.5880139 C47.4192573,33.036954 56.2882844,41.5473035 66.8354922,41.5473035 C72.525475,41.5473035 76.822251,39.6996825 80.1849453,36.2302956 C83.6362982,32.8079619 84.712867,27.9991282 84.712867,24.1156734 C84.712867,22.9111123 84.6178756,21.8759426 84.4310593,20.9505637" id="Fill-37" fill="#FFFFFF"></path>
        <path d="M159.361197,20.9505637 L141.920783,20.9505637 L141.920783,26.2989404 L154.215832,26.2989404 C153.810535,29.0280241 152.857455,31.1579641 151.426252,32.5758329 C149.602418,34.3826745 146.75901,36.3683182 141.76563,36.3683182 C134.064997,36.3683182 128.042545,30.2169008 128.042545,22.5880139 C128.042545,14.959127 134.064997,8.81084649 141.76563,8.81084649 C145.916753,8.81084649 148.95331,10.4294755 151.19194,12.5092255 L154.880771,8.85789966 C151.752389,5.89668699 147.5981,3.62872432 141.76563,3.62872432 C131.218423,3.62872432 122.349396,12.135937 122.349396,22.5880139 C122.349396,33.036954 131.218423,41.5473035 141.76563,41.5473035 C147.455613,41.5473035 151.752389,39.6996825 155.115083,36.2302956 C158.566436,32.8079619 159.643005,27.9991282 159.643005,24.1156734 C159.643005,22.9111123 159.548014,21.8759426 159.361197,20.9505637" id="Fill-39" fill="#FFFFFF"></path>
        <path d="M192.585808,40.1928202 C189.420098,38.3728538 186.933207,35.8767193 185.125136,32.7044168 C183.317064,29.5321143 182.416201,25.9964504 182.416201,22.0974252 C182.416201,18.2015597 183.317064,14.6658958 185.125136,11.4935933 C186.933207,8.31813109 189.420098,5.8251563 192.585808,4.00518992 C195.754691,2.18838319 199.275672,1.2784 203.148751,1.2784 C206.130482,1.2784 208.861622,1.84397983 211.338996,2.9751395 C213.816371,4.10629916 215.967024,5.71456807 217.794128,7.79046723 L214.384169,11.0765176 C212.858411,9.25655126 211.18991,7.92001345 209.381839,7.0669042 C207.573767,6.21379496 205.496071,5.78724034 203.148751,5.78724034 C200.243149,5.78724034 197.578623,6.4634084 195.158345,7.8189042 C192.734895,9.1744 190.806286,11.0859966 189.372517,13.5505345 C187.938748,16.0213916 187.221864,18.8682487 187.221864,22.0974252 C187.221864,25.3266017 187.938748,28.1766185 189.372517,30.644316 C190.806286,33.1120134 192.734895,35.0236101 195.158345,36.3791059 C197.578623,37.7346017 200.243149,38.4107697 203.148751,38.4107697 C207.992479,38.4107697 212.109806,36.4265008 215.503904,32.4548034 L218.964616,35.7914084 C217.10262,37.9842151 214.812396,39.7188706 212.093945,40.9985345 C209.372322,42.2781983 206.393763,42.9196101 203.148751,42.9196101 C199.275672,42.9196101 195.754691,42.0096269 192.585808,40.1928202" id="Fill-42" fill="#FFFFFF"></path>
        <path d="M237.688304,1.0546958 L242.887302,1.0546958 L238.922233,8.12286387 L234.782702,8.12286387 L237.688304,1.0546958 Z M241.74219,37.3244773 C243.252088,36.4524101 244.460641,35.2011832 245.377365,33.567637 C246.287744,31.9309311 246.74452,30.0224941 246.74452,27.8328471 C246.74452,25.6432 246.287744,23.7316034 245.377365,22.0980571 C244.460641,20.4676706 243.252088,19.213284 241.74219,18.3412168 C240.235464,17.4691496 238.605028,17.033116 236.850881,17.033116 C235.099907,17.033116 233.463127,17.4691496 231.934196,18.3412168 C230.405266,19.213284 229.184025,20.4676706 228.270473,22.0980571 C227.360093,23.7316034 226.903318,25.6432 226.903318,27.8328471 C226.903318,30.0224941 227.360093,31.9309311 228.270473,33.567637 C229.184025,35.2011832 230.405266,36.4524101 231.934196,37.3244773 C233.463127,38.1965445 235.099907,38.6325782 236.850881,38.6325782 C238.605028,38.6325782 240.235464,38.1965445 241.74219,37.3244773 Z M229.304563,40.9138555 C227.068264,39.5773176 225.329978,37.7605109 224.083361,35.4602756 C222.830399,33.1568807 222.208676,30.6133513 222.208676,27.8328471 C222.208676,25.0491832 222.830399,22.5056538 224.083361,20.2054185 C225.329978,17.9051832 227.068264,16.0852168 229.304563,14.748679 C231.544034,13.4121412 234.056301,12.7454521 236.850881,12.7454521 C239.645462,12.7454521 242.160901,13.4121412 244.3972,14.748679 C246.633498,16.0852168 248.374956,17.9051832 249.621574,20.2054185 C250.871363,22.5056538 251.496258,25.0491832 251.496258,27.8328471 C251.496258,30.6133513 250.871363,33.1568807 249.621574,35.4602756 C248.374956,37.7605109 246.633498,39.5773176 244.3972,40.9138555 C242.160901,42.2503933 239.645462,42.920242 236.850881,42.920242 C234.056301,42.920242 231.544034,42.2503933 229.304563,40.9138555 Z" id="Fill-44" fill="#FFFFFF"></path>
        <path d="M256.466868,13.6348975 L260.996562,13.6348975 L260.996562,18.2006118 L261.218606,18.2006118 C261.776888,16.6428975 262.861731,15.3537546 264.460446,14.3331832 C266.062334,13.3094521 267.740351,12.8007462 269.488153,12.8007462 C270.798212,12.8007462 271.911603,12.9871664 272.844187,13.3568471 L272.844187,18.4786622 C271.651494,17.887805 270.309715,17.587637 268.822021,17.587637 C267.442178,17.587637 266.176528,17.9794353 265.018728,18.7567126 C263.8641,19.5371496 262.941032,20.586158 262.252696,21.9037378 C261.56436,23.2213176 261.218606,24.6400067 261.218606,26.1629647 L261.218606,42.027637 L256.466868,42.027637 L256.466868,13.6348975 Z" id="Fill-46" fill="#FFFFFF"></path>
        <path d="M293.05081,37.2954084 C294.481407,36.4075429 295.639207,35.1436773 296.514694,33.5132908 C297.390181,31.8765849 297.827925,29.9871059 297.827925,27.8322151 C297.827925,25.680484 297.390181,23.7878454 296.514694,22.1542992 C295.639207,20.5207529 294.481407,19.2600471 293.05081,18.3690218 C291.613869,17.4779966 290.059563,17.032484 288.381546,17.032484 C286.744765,17.032484 285.196803,17.4779966 283.744002,18.3690218 C282.288028,19.2600471 281.123884,20.5302319 280.251569,22.1827361 C279.376082,23.8320807 278.938339,25.7184 278.938339,27.8322151 C278.938339,29.9491899 279.376082,31.8323496 280.251569,33.4848538 C281.123884,35.1341983 282.288028,36.4075429 283.744002,37.2954084 C285.196803,38.1864336 286.744765,38.6319462 288.381546,38.6319462 C290.059563,38.6319462 291.613869,38.1864336 293.05081,37.2954084 M280.920873,40.9700975 C278.852693,39.6714756 277.222257,37.8831059 276.032736,35.5986689 C274.840044,33.3142319 274.240525,30.7264672 274.240525,27.8322151 C274.240525,24.975879 274.840044,22.3944336 276.032736,20.0941983 C277.222257,17.793963 278.852693,15.9929546 280.920873,14.6943328 C282.989053,13.3957109 285.288792,12.7448202 287.826436,12.7448202 C290.021498,12.7448202 291.978656,13.2377277 293.691565,14.2203832 C295.404475,15.2061983 296.711362,16.4226689 297.605881,17.869795 L297.827925,17.869795 L297.605881,13.9170555 L297.605881,2.16942521 L302.357619,2.16942521 L302.357619,42.0285849 L297.827925,42.0285849 L297.827925,37.8546689 L297.605881,37.8546689 C296.711362,39.263879 295.404475,40.4613916 293.691565,41.4440471 C291.978656,42.4267025 290.021498,42.9196101 287.826436,42.9196101 C285.288792,42.9196101 282.989053,42.2687193 280.920873,40.9700975" id="Fill-48" fill="#FFFFFF"></path>
        <path d="M327.144055,37.3232134 C328.650781,36.4543059 329.859334,35.1999193 330.776058,33.5695328 C331.686438,31.9328269 332.143213,30.0212303 332.143213,27.8315832 C332.143213,25.6450958 331.686438,23.7303395 330.776058,22.0999529 C329.859334,20.4664067 328.650781,19.2151798 327.144055,18.3399529 C325.630985,17.4710454 324.003721,17.0318521 322.249575,17.0318521 C320.4986,17.0318521 318.86182,17.4710454 317.33289,18.3399529 C315.807131,19.2151798 314.58589,20.4664067 313.672338,22.0999529 C312.758787,23.7303395 312.302011,25.6450958 312.302011,27.8315832 C312.302011,30.0212303 312.758787,31.9328269 313.672338,33.5695328 C314.58589,35.1999193 315.807131,36.4543059 317.33289,37.3232134 C318.86182,38.1952807 320.4986,38.6313143 322.249575,38.6313143 C324.003721,38.6313143 325.630985,38.1952807 327.144055,37.3232134 M314.706428,40.9157513 C312.47013,39.5792134 310.728672,37.7624067 309.482054,35.4590118 C308.232264,33.1587765 307.610542,30.6152471 307.610542,27.8315832 C307.610542,25.0479193 308.232264,22.5075496 309.482054,20.2041546 C310.728672,17.9039193 312.47013,16.0839529 314.706428,14.7474151 C316.939555,13.414037 319.454994,12.7473479 322.249575,12.7473479 C325.044155,12.7473479 327.559594,13.414037 329.795893,14.7474151 C332.032191,16.0839529 333.77365,17.9039193 335.020267,20.2041546 C336.270057,22.5075496 336.894951,25.0479193 336.894951,27.8315832 C336.894951,30.6152471 336.270057,33.1587765 335.020267,35.4590118 C333.77365,37.7624067 332.032191,39.5792134 329.795893,40.9157513 C327.559594,42.2522891 325.044155,42.9189782 322.249575,42.9189782 C319.454994,42.9189782 316.939555,42.2522891 314.706428,40.9157513" id="Fill-50" fill="#FFFFFF"></path>
        <path d="M360.704712,37.2954084 C362.157513,36.4075429 363.318485,35.1341983 364.200316,33.4848538 C365.072631,31.8323496 365.513547,29.9491899 365.513547,27.8322151 C365.513547,25.7184 365.072631,23.8320807 364.200316,22.1827361 C363.318485,20.5302319 362.157513,19.2600471 360.704712,18.3690218 C359.248739,17.4779966 357.70712,17.032484 356.063996,17.032484 C354.424043,17.032484 352.879253,17.4779966 351.42328,18.3690218 C349.973651,19.2600471 348.815851,20.5207529 347.959396,22.1542992 C347.102941,23.7878454 346.674714,25.680484 346.674714,27.8322151 C346.674714,29.9871059 347.102941,31.8765849 347.959396,33.5132908 C348.815851,35.1436773 349.973651,36.4075429 351.42328,37.2954084 C352.879253,38.1864336 354.424043,38.6319462 356.063996,38.6319462 C357.70712,38.6319462 359.248739,38.1864336 360.704712,37.2954084 M350.782525,41.4440471 C349.050583,40.4613916 347.756384,39.263879 346.896757,37.8546689 L346.674714,37.8546689 L346.674714,42.0285849 L342.148191,42.0285849 L342.148191,2.16942521 L346.896757,2.16942521 L346.896757,13.9170555 L346.674714,17.869795 L346.896757,17.869795 C347.756384,16.4226689 349.050583,15.2061983 350.782525,14.2203832 C352.514466,13.2377277 354.462108,12.7448202 356.622277,12.7448202 C359.156749,12.7448202 361.466005,13.3957109 363.553217,14.6943328 C365.643601,15.9929546 367.277209,17.793963 368.473074,20.0941983 C369.662595,22.3944336 370.262113,24.975879 370.262113,27.8322151 C370.262113,30.7264672 369.662595,33.3142319 368.473074,35.5986689 C367.277209,37.8831059 365.643601,39.6714756 363.553217,40.9700975 C361.466005,42.2687193 359.156749,42.9196101 356.622277,42.9196101 C354.462108,42.9196101 352.514466,42.4267025 350.782525,41.4440471" id="Fill-52" fill="#FFFFFF"></path>
        <mask id="mask-2" fill="white">
            <use xlink:href="#path-1"></use>
        </mask>
        <g id="Clip-55"></g>
        <path d="M389.823223,37.5206924 C391.199895,36.7023395 392.297426,35.6090958 393.118988,34.234642 C393.937378,32.8601882 394.346573,31.3593479 394.346573,29.7258017 C393.455226,29.1317849 392.354523,28.6483563 391.050808,28.2786756 C389.747094,27.9058353 388.36725,27.7194151 386.914449,27.7194151 C384.30702,27.7194151 382.340346,28.2597176 381.020771,29.3340034 C379.694852,30.4114487 379.035065,31.8017008 379.035065,33.511079 C379.035065,35.0719529 379.631411,36.3326588 380.820932,37.2963563 C382.016796,38.2600538 383.523522,38.746642 385.350626,38.746642 C386.952514,38.746642 388.440207,38.3358857 389.823223,37.5206924 M379.314206,41.6946084 C377.674253,40.8762555 376.408603,39.7545748 375.510912,38.3264067 C374.619565,36.8982387 374.172305,35.2741714 374.172305,33.4573647 C374.172305,30.4493647 375.3079,28.1048941 377.582264,26.4113143 C379.853455,24.7240538 382.724165,23.8804235 386.188048,23.8804235 C387.90413,23.8804235 389.493329,24.0668437 390.965163,24.4365244 C392.436996,24.8093647 393.566248,25.2327597 394.346573,25.7193479 L394.346573,23.9910118 C394.346573,21.8771966 393.60114,20.1772975 392.113447,18.8944739 C390.622581,17.6148101 388.73838,16.976558 386.464017,16.976558 C384.868474,16.976558 383.393468,17.3178017 382.054861,18.0066084 C380.70991,18.6922555 379.650443,19.6496336 378.866946,20.8724235 L375.288868,18.2025076 C376.408603,16.4962891 377.94705,15.1597513 379.901036,14.1928941 C381.855022,13.2291966 384.027879,12.7457681 386.410092,12.7457681 C390.286343,12.7457681 393.331516,13.7568605 395.548782,15.7790454 C397.766048,17.8043899 398.876267,20.5596168 398.876267,24.0447261 L398.876267,42.0295328 L394.346573,42.0295328 L394.346573,37.966205 L394.121357,37.966205 C393.306139,39.3374992 392.075382,40.5065748 390.43543,41.4734319 C388.795477,42.4371294 386.952514,42.920558 384.903366,42.920558 C382.816154,42.920558 380.950986,42.5098017 379.314206,41.6946084" id="Fill-54" fill="#FFFFFF" mask="url(#mask-2)"></path>
    </g>
</svg>