<?xml version="1.0" encoding="UTF-8"?>
<svg width="400px" height="47px" viewBox="0 0 400 47" version="1.1" xmlns="http://www.w3.org/2000/svg" xmlns:xlink="http://www.w3.org/1999/xlink">
    <!-- Generator: Sketch 52.3 (67297) - http://www.bohemiancoding.com/sketch -->
    <title>logo</title>
    <desc>Created with Sketch.</desc>
    <defs>
        <polygon id="path-1" points="0.366082366 0.107112605 25.0694106 0.107112605 25.0694106 30.2819025 0.366082366 30.2819025"></polygon>
    </defs>
    <g id="logo" stroke="none" stroke-width="1" fill="none" fill-rule="evenodd">
        <g id="Group-35">
            <polygon id="Fill-1" fill="#FABB05" points="8.29015544 46.912042 16.5125777 47 22.1070812 37.5689432 21.9963634 37.3767386 18.075652 30.4117647"></polygon>
            <polygon id="Fill-2" fill="#34A853" points="0 46.9044327 8.42900798 47 17.9620035 30.861868 13.8283951 23.5"></polygon>
            <path d="M16.1014565,47 L21.4162349,38.0178085 L21.4162349,38.0147059 L16.1014565,47 Z M8.29015544,46.9162283 L16.1014565,47 L8.29015544,46.9131256 L8.29015544,46.9162283 Z" id="Fill-3" fill="#DF9C30"></path>
            <polygon id="Fill-5" fill="#4285F4" points="21.9740356 38.0147059 26.2489993 30.7579025 26.2521589 30.7515396 9.08595229 0.0890795686 0.690846287 0"></polygon>
            <path d="M29.033506,25.8436642 C29.837513,24.4941422 29.8565803,22.8183272 29.0811744,21.4529657 L17.0051813,0.0887009804 L8.98100173,1.42108547e-14 L26.246494,30.5289767 L29.033506,25.8436642" id="Fill-6" fill="#DF382B"></path>
            <path d="M0.421734024,0.044033701 L13.7529948,23.6194871 L13.7529948,23.6163192 L0.421734024,0.044033701 Z M26.1277098,30.6680472 L21.8280207,37.8971771 L26.124532,30.6712151 L26.1277098,30.6680472 Z" id="Fill-8" fill="#4B6398"></path>
            <g id="Group-41" transform="translate(46.977547, 3.455882)" fill="#5C6162">
                <path d="M53.4402418,31.6837208 C61.3751871,31.6837208 66.2925734,27.3203238 66.2925734,19.1299357 C66.2925734,10.9866009 61.3751871,6.57615068 53.4402418,6.57615068 L47.5602763,6.57615068 L47.5602763,31.6837208 L53.4402418,31.6837208 Z M42.0507772,1.11798326 L53.2470927,1.11798326 C64.6460564,1.11798326 71.8020725,8.61198439 71.8020725,19.1299357 C71.8020725,29.6949403 64.64289,37.1418882 53.2470927,37.1418882 L42.0507772,37.1418882 L42.0507772,1.11798326 Z" id="Fill-35"></path>
                <path d="M37.4535118,17.4946813 L20.0130973,17.4946813 L20.0130973,22.843058 L32.3081462,22.843058 C31.9028497,25.5721417 30.9497697,27.7020818 29.5185665,29.1199506 C27.6947323,30.9267922 24.8513241,32.9124359 19.8579447,32.9124359 C12.1573115,32.9124359 6.13485895,26.7610184 6.13485895,19.1321316 C6.13485895,11.5032447 12.1573115,5.35496414 19.8579447,5.35496414 C24.0090674,5.35496414 27.0456246,6.9735931 29.2842545,9.0533431 L32.9730858,5.40201731 C29.8447035,2.44080464 25.6904145,0.175978846 19.8579447,0.175978846 C9.3107369,0.172841968 0.441709845,8.68005464 0.441709845,19.1321316 C0.441709845,29.5810716 9.3107369,38.0914212 19.8579447,38.0914212 C25.5479275,38.0914212 29.8447035,36.2438001 33.2073978,32.7744132 C36.6587507,29.3520795 37.7353195,24.5432458 37.7353195,20.6597911 C37.7353195,19.45523 37.6403282,18.4200603 37.4535118,17.4946813" id="Fill-37"></path>
                <path d="M112.38365,17.4946813 L94.9432355,17.4946813 L94.9432355,22.843058 L107.238284,22.843058 C106.832988,25.5721417 105.879908,27.7020818 104.448705,29.1199506 C102.62487,30.9267922 99.7814623,32.9124359 94.7880829,32.9124359 C87.0874496,32.9124359 81.0649971,26.7610184 81.0649971,19.1321316 C81.0649971,11.5032447 87.0874496,5.35496414 94.7880829,5.35496414 C98.9392055,5.35496414 101.975763,6.9735931 104.214393,9.0533431 L107.903224,5.40201731 C104.774842,2.44080464 100.620553,0.172841968 94.7880829,0.172841968 C84.2408751,0.172841968 75.371848,8.68005464 75.371848,19.1321316 C75.371848,29.5810716 84.2408751,38.0914212 94.7880829,38.0914212 C100.478066,38.0914212 104.774842,36.2438001 108.137536,32.7744132 C111.588889,29.3520795 112.665458,24.5432458 112.665458,20.6597911 C112.665458,19.45523 112.570466,18.4200603 112.38365,17.4946813" id="Fill-39"></path>
            </g>
            <g id="Group-57" transform="translate(182.383420, 0.691176)">
                <path d="M10.2023888,39.5016437 C7.0366781,37.6816773 4.54978715,35.1855429 2.74171593,32.0132403 C0.933644701,28.8409378 0.0327811428,25.3052739 0.0327811428,21.4062487 C0.0327811428,17.5103832 0.933644701,13.9747193 2.74171593,10.8024168 C4.54978715,7.62695462 7.0366781,5.13397983 10.2023888,3.31401345 C13.3712715,1.49720672 16.8922523,0.587223529 20.7653312,0.587223529 C23.7470627,0.587223529 26.4782019,1.15280336 28.9555766,2.28396303 C31.4329514,3.41512269 33.5836046,5.0233916 35.4107081,7.09929076 L32.0007492,10.3853412 C30.4749909,8.56537479 28.8064901,7.22883697 26.9984188,6.37572773 C25.1903476,5.52261849 23.1126517,5.09606387 20.7653312,5.09606387 C17.859729,5.09606387 15.195203,5.77223193 12.7749252,7.12772773 C10.3514753,8.48322353 8.42286604,10.3948202 6.98909728,12.859358 C5.55532852,15.3302151 4.83844414,18.1770723 4.83844414,21.4062487 C4.83844414,24.6354252 5.55532852,27.485442 6.98909728,29.9531395 C8.42286604,32.420837 10.3514753,34.3324336 12.7749252,35.6879294 C15.195203,37.0434252 17.859729,37.7195933 20.7653312,37.7195933 C25.6090588,37.7195933 29.7263859,35.7353244 33.1204846,31.7636269 L36.5811963,35.1002319 C34.7192002,37.2930387 32.4289766,39.0276941 29.7105257,40.307358 C26.9889027,41.5870218 24.0103432,42.2284336 20.7653312,42.2284336 C16.8922523,42.2284336 13.3712715,41.3184504 10.2023888,39.5016437" id="Fill-42" fill="#606160"></path>
                <path d="M55.3048841,0.363519328 L60.5038819,0.363519328 L56.5388134,7.43168739 L52.3992819,7.43168739 L55.3048841,0.363519328 Z M59.3587701,36.6333008 C60.8686682,35.7612336 62.077221,34.5100067 62.9939449,32.8764605 C63.9043246,31.2397546 64.3611005,29.3313176 64.3611005,27.1416706 C64.3611005,24.9520235 63.9043246,23.0404269 62.9939449,21.4068807 C62.077221,19.7764941 60.8686682,18.5221076 59.3587701,17.6500403 C57.8520441,16.7779731 56.2216079,16.3419395 54.4674616,16.3419395 C52.7164874,16.3419395 51.0797071,16.7779731 49.5507767,17.6500403 C48.0218463,18.5221076 46.8006052,19.7764941 45.8870534,21.4068807 C44.9766737,23.0404269 44.5198978,24.9520235 44.5198978,27.1416706 C44.5198978,29.3313176 44.9766737,31.2397546 45.8870534,32.8764605 C46.8006052,34.5100067 48.0218463,35.7612336 49.5507767,36.6333008 C51.0797071,37.5053681 52.7164874,37.9414017 54.4674616,37.9414017 C56.2216079,37.9414017 57.8520441,37.5053681 59.3587701,36.6333008 Z M46.9211433,40.222679 C44.6848447,38.8861412 42.9465587,37.0693345 41.6999411,34.7690992 C40.4469795,32.4657042 39.8252568,29.9221748 39.8252568,27.1416706 C39.8252568,24.3580067 40.4469795,21.8144773 41.6999411,19.514242 C42.9465587,17.2140067 44.6848447,15.3940403 46.9211433,14.0575025 C49.160614,12.7209647 51.6728814,12.0542756 54.4674616,12.0542756 C57.2620419,12.0542756 59.7774813,12.7209647 62.01378,14.0575025 C64.2500786,15.3940403 65.9915366,17.2140067 67.2381542,19.514242 C68.4879438,21.8144773 69.1128386,24.3580067 69.1128386,27.1416706 C69.1128386,29.9221748 68.4879438,32.4657042 67.2381542,34.7690992 C65.9915366,37.0693345 64.2500786,38.8861412 62.01378,40.222679 C59.7774813,41.5592168 57.2620419,42.2290655 54.4674616,42.2290655 C51.6728814,42.2290655 49.160614,41.5592168 46.9211433,40.222679 Z" id="Fill-44" fill="#606160"></path>
                <path d="M74.0834484,12.943721 L78.6131426,12.943721 L78.6131426,17.5094353 L78.8351865,17.5094353 C79.3934681,15.951721 80.4783108,14.6625782 82.0770264,13.6420067 C83.6789141,12.6182756 85.3569311,12.1095697 87.1047333,12.1095697 C88.4147919,12.1095697 89.5281831,12.2959899 90.4607672,12.6656706 L90.4607672,17.7874857 C89.2680746,17.1966286 87.9262955,16.8964605 86.4386018,16.8964605 C85.0587579,16.8964605 83.7931081,17.2882588 82.6353081,18.0655361 C81.4806801,18.8459731 80.5576122,19.8949815 79.8692763,21.2125613 C79.1809404,22.5301412 78.8351865,23.9488303 78.8351865,25.4717882 L78.8351865,41.3364605 L74.0834484,41.3364605 L74.0834484,12.943721 Z" id="Fill-46" fill="#606160"></path>
                <path d="M110.667391,36.6042319 C112.097987,35.7163664 113.255787,34.4525008 114.131274,32.8221143 C115.006762,31.1854084 115.444505,29.2959294 115.444505,27.1410387 C115.444505,24.9893076 115.006762,23.0966689 114.131274,21.4631227 C113.255787,19.8295765 112.097987,18.5688706 110.667391,17.6778454 C109.23045,16.7868202 107.676143,16.3413076 105.998126,16.3413076 C104.361346,16.3413076 102.813383,16.7868202 101.360582,17.6778454 C99.9046087,18.5688706 98.7404646,19.8390555 97.8681496,21.4915597 C96.9926624,23.1409042 96.5549189,25.0272235 96.5549189,27.1410387 C96.5549189,29.2580134 96.9926624,31.1411731 97.8681496,32.7936773 C98.7404646,34.4430218 99.9046087,35.7163664 101.360582,36.6042319 C102.813383,37.4952571 104.361346,37.9407697 105.998126,37.9407697 C107.676143,37.9407697 109.23045,37.4952571 110.667391,36.6042319 M98.5374531,40.278921 C96.4692734,38.9802992 94.8388372,37.1919294 93.6493167,34.9074924 C92.4566241,32.6230555 91.8571057,30.0352908 91.8571057,27.1410387 C91.8571057,24.2847025 92.4566241,21.7032571 93.6493167,19.4030218 C94.8388372,17.1027866 96.4692734,15.3017782 98.5374531,14.0031563 C100.605633,12.7045345 102.905373,12.0536437 105.443016,12.0536437 C107.638078,12.0536437 109.595236,12.5465513 111.308146,13.5292067 C113.021055,14.5150218 114.327942,15.7314924 115.222461,17.1786185 L115.444505,17.1786185 L115.222461,13.225879 L115.222461,1.47824874 L119.974199,1.47824874 L119.974199,41.3374084 L115.444505,41.3374084 L115.444505,37.1634924 L115.222461,37.1634924 C114.327942,38.5727025 113.021055,39.7702151 111.308146,40.7528706 C109.595236,41.7355261 107.638078,42.2284336 105.443016,42.2284336 C102.905373,42.2284336 100.605633,41.5775429 98.5374531,40.278921" id="Fill-48" fill="#606160"></path>
                <path d="M144.760635,36.632037 C146.267361,35.7631294 147.475914,34.5087429 148.392638,32.8783563 C149.303018,31.2416504 149.759794,29.3300538 149.759794,27.1404067 C149.759794,24.9539193 149.303018,23.039163 148.392638,21.4087765 C147.475914,19.7752303 146.267361,18.5240034 144.760635,17.6487765 C143.247565,16.7798689 141.620301,16.3406756 139.866155,16.3406756 C138.115181,16.3406756 136.4784,16.7798689 134.94947,17.6487765 C133.423712,18.5240034 132.202471,19.7752303 131.288919,21.4087765 C130.375367,23.039163 129.918591,24.9539193 129.918591,27.1404067 C129.918591,29.3300538 130.375367,31.2416504 131.288919,32.8783563 C132.202471,34.5087429 133.423712,35.7631294 134.94947,36.632037 C136.4784,37.5041042 138.115181,37.9401378 139.866155,37.9401378 C141.620301,37.9401378 143.247565,37.5041042 144.760635,36.632037 M132.323009,40.2245748 C130.08671,38.888037 128.345252,37.0712303 127.098634,34.7678353 C125.848845,32.4676 125.227122,29.9240706 125.227122,27.1404067 C125.227122,24.3567429 125.848845,21.8163731 127.098634,19.5129782 C128.345252,17.2127429 130.08671,15.3927765 132.323009,14.0562387 C134.556135,12.7228605 137.071575,12.0561714 139.866155,12.0561714 C142.660735,12.0561714 145.176175,12.7228605 147.412473,14.0562387 C149.648772,15.3927765 151.39023,17.2127429 152.636847,19.5129782 C153.886637,21.8163731 154.511532,24.3567429 154.511532,27.1404067 C154.511532,29.9240706 153.886637,32.4676 152.636847,34.7678353 C151.39023,37.0712303 149.648772,38.888037 147.412473,40.2245748 C145.176175,41.5611126 142.660735,42.2278017 139.866155,42.2278017 C137.071575,42.2278017 134.556135,41.5611126 132.323009,40.2245748" id="Fill-50" fill="#606160"></path>
                <path d="M178.321292,36.6042319 C179.774093,35.7163664 180.935065,34.4430218 181.816897,32.7936773 C182.689212,31.1411731 183.130127,29.2580134 183.130127,27.1410387 C183.130127,25.0272235 182.689212,23.1409042 181.816897,21.4915597 C180.935065,19.8390555 179.774093,18.5688706 178.321292,17.6778454 C176.865319,16.7868202 175.3237,16.3413076 173.680576,16.3413076 C172.040624,16.3413076 170.495833,16.7868202 169.03986,17.6778454 C167.590231,18.5688706 166.432431,19.8295765 165.575976,21.4631227 C164.719521,23.0966689 164.291294,24.9893076 164.291294,27.1410387 C164.291294,29.2959294 164.719521,31.1854084 165.575976,32.8221143 C166.432431,34.4525008 167.590231,35.7163664 169.03986,36.6042319 C170.495833,37.4952571 172.040624,37.9407697 173.680576,37.9407697 C175.3237,37.9407697 176.865319,37.4952571 178.321292,36.6042319 M168.399105,40.7528706 C166.667163,39.7702151 165.372965,38.5727025 164.513338,37.1634924 L164.291294,37.1634924 L164.291294,41.3374084 L159.764772,41.3374084 L159.764772,1.47824874 L164.513338,1.47824874 L164.513338,13.225879 L164.291294,17.1786185 L164.513338,17.1786185 C165.372965,15.7314924 166.667163,14.5150218 168.399105,13.5292067 C170.131047,12.5465513 172.078688,12.0536437 174.238858,12.0536437 C176.773329,12.0536437 179.082585,12.7045345 181.169797,14.0031563 C183.260181,15.3017782 184.89379,17.1027866 186.089654,19.4030218 C187.279175,21.7032571 187.878693,24.2847025 187.878693,27.1410387 C187.878693,30.0352908 187.279175,32.6230555 186.089654,34.9074924 C184.89379,37.1919294 183.260181,38.9802992 181.169797,40.278921 C179.082585,41.5775429 176.773329,42.2284336 174.238858,42.2284336 C172.078688,42.2284336 170.131047,41.7355261 168.399105,40.7528706" id="Fill-52" fill="#606160"></path>
                <g id="Group-56" transform="translate(191.422803, 11.947479)">
                    <mask id="mask-2" fill="white">
                        <use xlink:href="#path-1"></use>
                    </mask>
                    <g id="Clip-55"></g>
                    <path d="M16.0170007,24.882037 C17.3936724,24.063684 18.4912034,22.9704403 19.3127656,21.5959866 C20.1311557,20.2215328 20.5403508,18.7206924 20.5403508,17.0871462 C19.6490034,16.4931294 18.5483004,16.0097008 17.2445859,15.6400202 C15.9408713,15.2671798 14.5610275,15.0807597 13.1082264,15.0807597 C10.5007974,15.0807597 8.53412343,15.6210622 7.21454864,16.6953479 C5.88862974,17.7727933 5.22884235,19.1630454 5.22884235,20.8724235 C5.22884235,22.4332975 5.82518864,23.6940034 7.01470919,24.6577008 C8.21057384,25.6213983 9.71729986,26.1079866 11.5444034,26.1079866 C13.1462911,26.1079866 14.6339848,25.6972303 16.0170007,24.882037 M5.50798317,29.0559529 C3.86803084,28.2376 2.60238099,27.1159193 1.70468948,25.6877513 C0.813342091,24.2595832 0.366082366,22.635516 0.366082366,20.8187092 C0.366082366,17.8107092 1.50167798,15.4662387 3.77604126,13.7726588 C6.04723248,12.0853983 8.91794206,11.2417681 12.3818259,11.2417681 C14.0979075,11.2417681 15.687107,11.4281882 17.1589404,11.7978689 C18.6307738,12.1707092 19.7600253,12.5941042 20.5403508,13.0806924 L20.5403508,11.3523563 C20.5403508,9.23854118 19.7949179,7.53864202 18.3072242,6.25581849 C16.8163585,4.97615462 14.9321579,4.33790252 12.6577946,4.33790252 C11.0622511,4.33790252 9.58724562,4.67914622 8.2486385,5.36795294 C6.90368727,6.0536 5.84422097,7.01097815 5.06072344,8.23376807 L1.48264565,5.5638521 C2.60238099,3.85763361 4.14082756,2.5210958 6.0948133,1.55423866 C8.04879905,0.590541176 10.2216566,0.107112605 12.6038697,0.107112605 C16.4801207,0.107112605 19.5252932,1.11820504 21.7425595,3.14038992 C23.9598258,5.16573445 25.070045,7.92096134 25.070045,11.4060706 L25.070045,29.3908773 L20.5403508,29.3908773 L20.5403508,25.3275496 L20.3151349,25.3275496 C19.4999168,26.6988437 18.2691596,27.8679193 16.6292072,28.8347765 C14.9892549,29.7984739 13.1462911,30.2819025 11.0971437,30.2819025 C9.00993165,30.2819025 7.14476343,29.8711462 5.50798317,29.0559529" id="Fill-54" fill="#606160" mask="url(#mask-2)"></path>
                </g>
            </g>
        </g>
    </g>
</svg>