<?xml version="1.0" encoding="UTF-8"?>
<svg width="114px" height="40px" viewBox="0 0 114 40" version="1.1" xmlns="http://www.w3.org/2000/svg" xmlns:xlink="http://www.w3.org/1999/xlink">
    <!-- Generator: Sketch 47.1 (45422) - http://www.bohemiancoding.com/sketch -->
    <title>Group 2</title>
    <desc>Created with Sketch.</desc>
    <defs></defs>
    <g id="Page-1" stroke="none" stroke-width="1" fill="none" fill-rule="evenodd">
        <g id="DesignAndTech" transform="translate(-166.000000, -3623.000000)">
            <g id="Group-2" transform="translate(166.000000, 3623.000000)">
                <path d="M46.908,5 L45.357,5 C45.111,5 44.964,5.156 44.964,5.419 L44.964,11.482 L42.111,5.31 C42.055,5.177 41.952,5 41.696,5 L40.393,5 C40.158,5 40,5.168 40,5.419 L40,17.151 C40,17.402 40.158,17.57 40.393,17.57 L41.943,17.57 C42.19,17.57 42.337,17.414 42.337,17.151 L42.337,11.088 L45.189,17.261 C45.245,17.394 45.349,17.57 45.605,17.57 L46.908,17.57 C47.143,17.57 47.302,17.402 47.302,17.151 L47.302,5.419 C47.302,5.168 47.143,5 46.908,5" id="Fill-39-Copy" fill="#010C10"></path>
                <path d="M53.812,8.106 L53.812,14.463 C53.812,14.854 53.638,15.029 53.248,15.029 L52.124,15.029 C51.733,15.029 51.559,14.854 51.559,14.463 L51.559,8.106 C51.559,7.726 51.744,7.542 52.124,7.542 L53.248,7.542 C53.627,7.542 53.812,7.726 53.812,8.106 M53.634,5 L51.666,5 C49.947,5 49,5.947 49,7.667 L49,14.903 C49,16.624 49.947,17.57 51.666,17.57 L53.634,17.57 C55.354,17.57 56.301,16.624 56.301,14.903 L56.301,7.667 C56.301,5.947 55.354,5 53.634,5" id="Fill-41-Copy" fill="#010C10"></path>
                <path d="M62.634,5 L60.667,5 C58.947,5 58,5.947 58,7.667 L58,10.705 C58,11.098 58.192,11.36 58.57,11.486 L62.69,12.826 L62.69,14.5 C62.69,14.89 62.516,15.063 62.125,15.063 L61.177,15.063 C60.797,15.063 60.613,14.879 60.613,14.5 L60.613,13.762 C60.613,13.491 60.463,13.343 60.193,13.343 L58.419,13.343 C58.156,13.343 58,13.499 58,13.762 L58,14.903 C58,16.624 58.947,17.57 60.667,17.57 L62.634,17.57 C64.355,17.57 65.302,16.624 65.302,14.903 L65.302,11.602 C65.302,11.218 65.112,10.948 64.749,10.82 L60.595,9.48 L60.595,8.089 C60.595,7.72 60.79,7.524 61.159,7.524 L62.125,7.524 C62.516,7.524 62.69,7.698 62.69,8.089 L62.69,8.826 C62.69,9.077 62.859,9.245 63.109,9.245 L64.883,9.245 C65.145,9.245 65.302,9.089 65.302,8.826 L65.302,7.667 C65.302,5.947 64.355,5 62.634,5" id="Fill-43" fill="#010C10"></path>
                <path d="M70.812,8.106 L70.812,14.463 C70.812,14.854 70.638,15.029 70.248,15.029 L69.124,15.029 C68.733,15.029 68.559,14.854 68.559,14.463 L68.559,8.106 C68.559,7.726 68.744,7.542 69.124,7.542 L70.248,7.542 C70.627,7.542 70.812,7.726 70.812,8.106 M70.634,5 L68.666,5 C66.947,5 66,5.947 66,7.667 L66,14.903 C66,16.624 66.947,17.57 68.666,17.57 L70.634,17.57 C72.354,17.57 73.301,16.624 73.301,14.903 L73.301,7.667 C73.301,5.947 72.354,5 70.634,5" id="Fill-45" fill="#010C10"></path>
                <path d="M75.419,17.57 L81.005,17.57 C81.275,17.57 81.424,17.422 81.424,17.151 L81.424,15.395 C81.424,15.132 81.268,14.975 81.005,14.975 L77.665,14.975 L77.665,5.419 C77.665,5.156 77.509,5 77.246,5 L75.419,5 C75.169,5 75,5.168 75,5.419 L75,17.151 C75,17.414 75.157,17.57 75.419,17.57" id="Fill-47" fill="#010C10"></path>
                <path d="M84.56,14.464 L84.56,8.107 C84.56,7.727 84.745,7.542 85.124,7.542 L86.248,7.542 C86.628,7.542 86.814,7.727 86.814,8.107 L86.814,14.464 C86.814,14.855 86.639,15.029 86.248,15.029 L85.124,15.029 C84.735,15.029 84.56,14.855 84.56,14.464 M84.668,17.57 L86.635,17.57 C88.355,17.57 89.302,16.624 89.302,14.903 L89.302,7.667 C89.302,5.947 88.355,5 86.635,5 L84.668,5 C82.948,5 82,5.947 82,7.667 L82,14.903 C82,16.624 82.948,17.57 84.668,17.57" id="Fill-49" fill="#010C10"></path>
                <path d="M42.667,20 C40.947,20 40,20.947 40,22.667 L40,25.706 C40,26.098 40.192,26.36 40.57,26.486 L44.69,27.826 L44.69,29.5 C44.69,29.89 44.516,30.064 44.125,30.064 L43.177,30.064 C42.797,30.064 42.613,29.879 42.613,29.5 L42.613,28.762 C42.613,28.491 42.463,28.343 42.193,28.343 L40.419,28.343 C40.156,28.343 40,28.499 40,28.762 L40,29.903 C40,31.624 40.947,32.57 42.667,32.57 L44.634,32.57 C46.355,32.57 47.302,31.624 47.302,29.903 L47.302,26.602 C47.302,26.218 47.112,25.948 46.749,25.82 L42.595,24.48 L42.595,23.089 C42.595,22.72 42.79,22.524 43.159,22.524 L44.125,22.524 C44.516,22.524 44.69,22.698 44.69,23.089 L44.69,23.826 C44.69,24.077 44.859,24.245 45.109,24.245 L46.883,24.245 C47.145,24.245 47.302,24.089 47.302,23.826 L47.302,22.667 C47.302,20.947 46.355,20 44.634,20 L42.667,20 Z" id="Fill-51" fill="#010C10"></path>
                <path d="M53.812,23.106 L53.812,29.463 C53.812,29.854 53.638,30.029 53.248,30.029 L52.124,30.029 C51.733,30.029 51.559,29.854 51.559,29.463 L51.559,23.106 C51.559,22.726 51.744,22.542 52.124,22.542 L53.248,22.542 C53.627,22.542 53.812,22.726 53.812,23.106 M53.634,20 L51.666,20 C49.947,20 49,20.947 49,22.667 L49,29.903 C49,31.624 49.947,32.57 51.666,32.57 L53.634,32.57 C55.354,32.57 56.301,31.624 56.301,29.903 L56.301,22.667 C56.301,20.947 55.354,20 53.634,20" id="Fill-53" fill="#010C10"></path>
                <path d="M64.883,20 L58.419,20 C58.156,20 58,20.156 58,20.419 L58,32.151 C58,32.414 58.156,32.57 58.419,32.57 L60.245,32.57 C60.496,32.57 60.665,32.402 60.665,32.151 L60.665,27.916 L63.829,27.916 C64.091,27.916 64.248,27.76 64.248,27.497 L64.248,25.74 C64.248,25.49 64.079,25.321 63.829,25.321 L60.665,25.321 L60.665,22.595 L64.883,22.595 C65.133,22.595 65.302,22.426 65.302,22.175 L65.302,20.419 C65.302,20.168 65.133,20 64.883,20" id="Fill-55" fill="#010C10"></path>
                <path d="M72.883,20 L66.419,20 C66.169,20 66,20.168 66,20.419 L66,22.175 C66,22.426 66.169,22.595 66.419,22.595 L68.319,22.595 L68.319,32.151 C68.319,32.414 68.475,32.57 68.737,32.57 L70.565,32.57 C70.835,32.57 70.984,32.422 70.984,32.151 L70.984,22.595 L72.883,22.595 C73.146,22.595 73.302,22.438 73.302,22.175 L73.302,20.419 C73.302,20.156 73.146,20 72.883,20" id="Fill-57" fill="#010C10"></path>
                <path d="M87.1167442,20.15 C87.0577442,20.082 86.9437442,20 86.7367442,20 L85.0857442,20 C84.7927442,20 84.6267442,20.147 84.5797442,20.455 L83.7477442,27.269 L82.1447442,20.4 C82.0747442,20.141 81.8897442,20 81.6257442,20 L80.5537442,20 C80.2897442,20 80.1047442,20.141 80.0327442,20.405 L78.4327442,27.262 L77.6347442,20.45 C77.5897442,20.16 77.4097442,20 77.1287442,20 L75.4777442,20 C75.2697442,20 75.1567442,20.082 75.0967442,20.15 C75.0407442,20.217 74.9777442,20.337 75.0077442,20.525 L76.6237442,32.12 C76.6687442,32.415 76.8487442,32.57 77.1457442,32.57 L79.0787442,32.57 C79.2677442,32.57 79.5117442,32.498 79.5987442,32.146 L81.0967442,25.542 L82.5807442,32.149 C82.6677442,32.498 82.9117442,32.57 83.1007442,32.57 L84.9977442,32.57 C85.2927442,32.57 85.4727442,32.421 85.5207442,32.136 L87.2067442,20.527 C87.2357442,20.337 87.1747442,20.217 87.1167442,20.15" id="Fill-59" fill="#010C10"></path>
                <path d="M92.5127031,27.798 L90.6467031,27.798 L91.5787031,23.771 L92.5127031,27.798 Z M93.2427031,20.357 C93.1977031,20.127 93.0427031,20 92.8087031,20 L90.3667031,20 C90.1337031,20 89.9797031,20.127 89.9347031,20.351 L87.0197031,32.098 C86.9727031,32.27 87.0187031,32.378 87.0647031,32.439 C87.1107031,32.499 87.2027031,32.57 87.3817031,32.57 L89.1027031,32.57 C89.3207031,32.57 89.4677031,32.445 89.5177031,32.22 L90.0357031,30.111 L93.1227031,30.111 L93.6577031,32.217 C93.7077031,32.445 93.8567031,32.57 94.0737031,32.57 L95.7777031,32.57 C95.9307031,32.57 96.0437031,32.526 96.1127031,32.435 C96.1587031,32.375 96.2027031,32.268 96.1577031,32.102 L93.2427031,20.357 Z" id="Fill-61" fill="#010C10"></path>
                <path d="M101.742,23.106 L101.742,25.758 C101.742,26.137 101.557,26.323 101.178,26.323 L99.559,26.323 L99.559,22.542 L101.178,22.542 C101.557,22.542 101.742,22.726 101.742,23.106 M101.635,20 L97.419,20 C97.169,20 97,20.168 97,20.418 L97,32.151 C97,32.402 97.169,32.57 97.419,32.57 L99.14,32.57 C99.39,32.57 99.559,32.402 99.559,32.151 L99.559,28.864 L100.877,28.864 L101.693,32.216 C101.758,32.509 101.965,32.57 102.127,32.57 L103.847,32.57 C104.03,32.57 104.127,32.497 104.175,32.434 C104.223,32.372 104.272,32.26 104.228,32.084 L103.338,28.402 C103.977,27.961 104.302,27.22 104.302,26.197 L104.302,22.667 C104.302,20.947 103.354,20 101.635,20" id="Fill-63" fill="#010C10"></path>
                <path d="M112.865,22.611 C113.132,22.611 113.284,22.453 113.284,22.174 L113.284,20.419 C113.284,20.148 113.136,20 112.865,20 L106.401,20 C106.165,20 106,20.172 106,20.419 L106,32.151 C106,32.398 106.165,32.57 106.401,32.57 L112.865,32.57 C113.136,32.57 113.284,32.422 113.284,32.151 L113.284,30.395 C113.284,30.117 113.143,29.976 112.865,29.976 L108.665,29.976 L108.665,27.653 L111.829,27.653 C112.084,27.653 112.248,27.481 112.248,27.215 L112.248,25.477 C112.248,25.212 112.084,25.041 111.829,25.041 L108.665,25.041 L108.665,22.611 L112.865,22.611 Z" id="Fill-65" fill="#010C10"></path>
                <path d="M23.367,35.0426303 L11.261,28.0846303 C10.699,27.7626303 10.353,27.1646303 10.353,26.5176303 L10.353,12.6186303 C10.353,12.1566303 10.851,11.8666303 11.254,12.0956303 L13.254,13.2316303 C13.631,13.4456303 13.864,13.8466303 13.864,14.2796303 L13.864,24.5166303 C13.864,25.1676303 14.211,25.7696303 14.775,26.0946303 L23.664,31.2266303 C24.043,31.4446303 24.51,31.4406303 24.885,31.2176303 L26.781,30.0836303 C27.332,29.7546303 27.669,29.1606303 27.669,28.5206303 L27.669,10.6446303 C27.669,9.99363035 27.322,9.39363035 26.759,9.06663035 L20.766,5.60263035 L23.37,4.12463035 C23.931,3.80663035 24.621,3.80963035 25.18,4.13263035 L30.269,7.07463035 C30.833,7.39963035 31.179,8.00163035 31.179,8.65163035 L31.179,30.5286303 C31.179,31.1796303 30.832,31.7806303 30.268,32.1056303 L25.186,35.0406303 C24.624,35.3656303 23.93,35.3656303 23.367,35.0426303 M9.45,35.0436303 L4.368,32.1056303 C3.805,31.7806303 3.458,31.1796303 3.458,30.5286303 L3.458,8.65063035 C3.458,8.00163035 3.805,7.39963035 4.367,7.07463035 L9.445,4.13563035 C10.008,3.81063035 10.7,3.80963035 11.263,4.13163035 L23.367,11.0626303 C23.93,11.3846303 24.277,11.9826303 24.277,12.6316303 L24.277,26.5206303 C24.277,26.9856303 23.775,27.2776303 23.37,27.0476303 L21.376,25.9146303 C20.999,25.7006303 20.766,25.3006303 20.766,24.8666303 L20.766,14.6336303 C20.766,13.9806303 20.418,13.3786303 19.851,13.0536303 L10.96,7.94963035 C10.585,7.73363035 10.123,7.73563035 9.75,7.95563035 L7.86,9.06463035 C7.304,9.39263035 6.962,9.98963035 6.962,10.6366303 L6.962,28.5066303 C6.962,29.1546303 7.306,29.7546303 7.866,30.0806303 L13.864,33.5726303 L11.261,35.0506303 C10.698,35.3696303 10.01,35.3666303 9.45,35.0436303 M33.425,4.90563035 L25.485,0.324630348 C24.737,-0.106369652 23.816,-0.108369652 23.066,0.319630348 L17.31,3.60963035 L11.564,0.320630348 C10.814,-0.107369652 9.892,-0.106369652 9.144,0.325630348 L1.215,4.90063035 C0.463,5.33463035 0,6.13663035 0,7.00463035 L0,32.1706303 C0,33.0386303 0.463,33.8406303 1.214,34.2736303 L9.143,38.8526303 C9.892,39.2846303 10.814,39.2856303 11.565,38.8556303 L17.31,35.5646303 L23.065,38.8566303 C23.816,39.2866303 24.737,39.2846303 25.486,38.8526303 L33.416,34.2736303 C34.168,33.8406303 34.631,33.0386303 34.631,32.1706303 L34.631,6.99463035 C34.631,6.13263035 34.171,5.33663035 33.425,4.90563035" id="Fill-67-Copy" fill="#DA072B"></path>
            </g>
        </g>
    </g>
</svg>