<?xml version="1.0" encoding="utf-8"?>
<!-- Generator: Adobe Illustrator 22.0.1, SVG Export Plug-In . SVG Version: 6.00 Build 0)  -->
<svg version="1.1" id="Capa_1" xmlns="http://www.w3.org/2000/svg" xmlns:xlink="http://www.w3.org/1999/xlink" x="0px" y="0px"
	 viewBox="0 0 254.6 103.6" style="enable-background:new 0 0 254.6 103.6;" xml:space="preserve">
<style type="text/css">
	.st0{fill:#FFFFFF;}
</style>
<g>
	<g>
		<path class="st0" d="M109.7,25.4h-3.1c-0.5,0-0.8,0.3-0.8,0.8v11.9L100.2,26c-0.1-0.3-0.3-0.6-0.8-0.6h-2.6
			c-0.5,0-0.8,0.3-0.8,0.8v23.1c0,0.5,0.3,0.8,0.8,0.8h3.1c0.5,0,0.8-0.3,0.8-0.8V37.4l5.6,12.2c0.1,0.3,0.3,0.6,0.8,0.6h2.6
			c0.5,0,0.8-0.3,0.8-0.8V26.2C110.4,25.7,110.1,25.4,109.7,25.4z"/>
		<path class="st0" d="M122.6,25.4h-3.9c-3.4,0-5.3,1.9-5.3,5.3v14.3c0,3.4,1.9,5.3,5.3,5.3h3.9c3.4,0,5.3-1.9,5.3-5.3V30.6
			C127.8,27.2,125.9,25.4,122.6,25.4z M122.9,31.5V44c0,0.8-0.3,1.1-1.1,1.1h-2.2c-0.8,0-1.1-0.3-1.1-1.1V31.5
			c0-0.7,0.4-1.1,1.1-1.1h2.2C122.5,30.4,122.9,30.8,122.9,31.5z"/>
		<path class="st0" d="M139.9,25.4H136c-3.4,0-5.3,1.9-5.3,5.3v6c0,0.8,0.4,1.3,1.1,1.5l8.1,2.6v3.3c0,0.8-0.3,1.1-1.1,1.1H137
			c-0.7,0-1.1-0.4-1.1-1.1v-1.5c0-0.5-0.3-0.8-0.8-0.8h-3.5c-0.5,0-0.8,0.3-0.8,0.8v2.2c0,3.4,1.9,5.3,5.3,5.3h3.9
			c3.4,0,5.3-1.9,5.3-5.3v-6.5c0-0.8-0.4-1.3-1.1-1.5l-8.2-2.6v-2.7c0-0.7,0.4-1.1,1.1-1.1h1.9c0.8,0,1.1,0.3,1.1,1.1v1.5
			c0,0.5,0.3,0.8,0.8,0.8h3.5c0.5,0,0.8-0.3,0.8-0.8v-2.3C145.1,27.2,143.3,25.4,139.9,25.4z"/>
		<path class="st0" d="M156.8,25.4H153c-3.4,0-5.3,1.9-5.3,5.3v14.3c0,3.4,1.9,5.3,5.3,5.3h3.9c3.4,0,5.3-1.9,5.3-5.3V30.6
			C162.1,27.2,160.2,25.4,156.8,25.4z M157.2,31.5V44c0,0.8-0.3,1.1-1.1,1.1h-2.2c-0.8,0-1.1-0.3-1.1-1.1V31.5
			c0-0.7,0.4-1.1,1.1-1.1h2.2C156.8,30.4,157.2,30.8,157.2,31.5z"/>
		<path class="st0" d="M165.4,50.1h11c0.5,0,0.8-0.3,0.8-0.8v-3.5c0-0.5-0.3-0.8-0.8-0.8h-6.6V26.2c0-0.5-0.3-0.8-0.8-0.8h-3.6
			c-0.5,0-0.8,0.3-0.8,0.8v23.1C164.6,49.8,164.9,50.1,165.4,50.1z"/>
		<path class="st0" d="M184.4,50.1h3.9c3.4,0,5.3-1.9,5.3-5.3V30.6c0-3.4-1.9-5.3-5.3-5.3h-3.9c-3.4,0-5.3,1.9-5.3,5.3v14.3
			C179.1,48.3,181,50.1,184.4,50.1z M184.2,44V31.5c0-0.7,0.4-1.1,1.1-1.1h2.2c0.7,0,1.1,0.4,1.1,1.1V44c0,0.8-0.3,1.1-1.1,1.1h-2.2
			C184.5,45.1,184.2,44.8,184.2,44z"/>
		<path class="st0" d="M105.2,55.3h-3.9c-3.4,0-5.3,1.9-5.3,5.3v6c0,0.8,0.4,1.3,1.1,1.5l8.1,2.6V74c0,0.8-0.3,1.1-1.1,1.1h-1.9
			c-0.7,0-1.1-0.4-1.1-1.1v-1.5c0-0.5-0.3-0.8-0.8-0.8h-3.5c-0.5,0-0.8,0.3-0.8,0.8v2.2c0,3.4,1.9,5.3,5.3,5.3h3.9
			c3.4,0,5.3-1.9,5.3-5.3v-6.5c0-0.8-0.4-1.3-1.1-1.5l-8.2-2.6v-2.7c0-0.7,0.4-1.1,1.1-1.1h1.9c0.8,0,1.1,0.3,1.1,1.1v1.5
			c0,0.5,0.3,0.8,0.8,0.8h3.5c0.5,0,0.8-0.3,0.8-0.8v-2.3C110.4,57.2,108.6,55.3,105.2,55.3z"/>
		<path class="st0" d="M122.6,55.3h-3.9c-3.4,0-5.3,1.9-5.3,5.3v14.3c0,3.4,1.9,5.3,5.3,5.3h3.9c3.4,0,5.3-1.9,5.3-5.3V60.6
			C127.8,57.2,125.9,55.3,122.6,55.3z M122.9,61.4V74c0,0.8-0.3,1.1-1.1,1.1h-2.2c-0.8,0-1.1-0.3-1.1-1.1V61.4
			c0-0.7,0.4-1.1,1.1-1.1h2.2C122.5,60.3,122.9,60.7,122.9,61.4z"/>
		<path class="st0" d="M144.3,55.3h-12.7c-0.5,0-0.8,0.3-0.8,0.8v23.1c0,0.5,0.3,0.8,0.8,0.8h3.6c0.5,0,0.8-0.3,0.8-0.8v-8.3h6.2
			c0.5,0,0.8-0.3,0.8-0.8v-3.5c0-0.5-0.3-0.8-0.8-0.8H136v-5.4h8.3c0.5,0,0.8-0.3,0.8-0.8v-3.5C145.1,55.6,144.8,55.3,144.3,55.3z"
			/>
		<path class="st0" d="M161.3,55.3h-12.7c-0.5,0-0.8,0.3-0.8,0.8v3.5c0,0.5,0.3,0.8,0.8,0.8h3.7v18.8c0,0.5,0.3,0.8,0.8,0.8h3.6
			c0.5,0,0.8-0.3,0.8-0.8V60.4h3.7c0.5,0,0.8-0.3,0.8-0.8v-3.5C162.1,55.6,161.8,55.3,161.3,55.3z"/>
		<path class="st0" d="M188.4,55.6c-0.1-0.1-0.3-0.3-0.7-0.3h-3.3c-0.6,0-0.9,0.3-1,0.9l-1.6,13.4l-3.2-13.5c-0.1-0.5-0.5-0.8-1-0.8
			h-2.1c-0.5,0-0.9,0.3-1,0.8l-3.2,13.5l-1.6-13.4c-0.1-0.6-0.4-0.9-1-0.9h-3.3c-0.4,0-0.6,0.2-0.7,0.3c-0.1,0.1-0.2,0.4-0.2,0.7
			l3.2,22.8c0.1,0.6,0.4,0.9,1,0.9h3.8c0.4,0,0.9-0.1,1-0.8l3-13l2.9,13c0.2,0.7,0.7,0.8,1,0.8h3.7c0.6,0,0.9-0.3,1-0.9l3.3-22.9
			C188.7,56,188.6,55.7,188.4,55.6z"/>
		<path class="st0" d="M200.7,56c-0.1-0.5-0.4-0.7-0.9-0.7H195c-0.5,0-0.8,0.2-0.9,0.7l-5.7,23.1c-0.1,0.3,0,0.6,0.1,0.7
			c0.1,0.1,0.3,0.3,0.6,0.3h3.4c0.4,0,0.7-0.2,0.8-0.7l1-4.2h6.1l1.1,4.1c0.1,0.5,0.4,0.7,0.8,0.7h3.4c0.3,0,0.5-0.1,0.7-0.3
			c0.1-0.1,0.2-0.3,0.1-0.7L200.7,56z M199.2,70.7h-3.7l1.8-7.9L199.2,70.7z"/>
		<path class="st0" d="M217.5,55.3h-8.3c-0.5,0-0.8,0.3-0.8,0.8v23.1c0,0.5,0.3,0.8,0.8,0.8h3.4c0.5,0,0.8-0.3,0.8-0.8v-6.5h2.6
			l1.6,6.6c0.1,0.6,0.5,0.7,0.9,0.7h3.4c0.4,0,0.5-0.1,0.6-0.3c0.1-0.1,0.2-0.3,0.1-0.7l-1.8-7.3c1.3-0.9,1.9-2.3,1.9-4.3v-7
			C222.7,57.2,220.9,55.3,217.5,55.3z M217.7,61.4v5.2c0,0.7-0.4,1.1-1.1,1.1h-3.2v-7.5h3.2C217.3,60.3,217.7,60.7,217.7,61.4z"/>
		<path class="st0" d="M239.2,60.5c0.5,0,0.8-0.3,0.8-0.9v-3.5c0-0.5-0.3-0.8-0.8-0.8h-12.7c-0.5,0-0.8,0.3-0.8,0.8v23.1
			c0,0.5,0.3,0.8,0.8,0.8h12.7c0.5,0,0.8-0.3,0.8-0.8v-3.5c0-0.5-0.3-0.8-0.8-0.8h-8.3v-4.6h6.2c0.5,0,0.8-0.3,0.8-0.9v-3.4
			c0-0.5-0.3-0.9-0.8-0.9h-6.2v-4.8H239.2z"/>
	</g>
	<path class="st0" d="M83.6,23.8l-15.6-9c-1.5-0.9-3.3-0.9-4.8,0l-11.3,6.5l-11.3-6.5c-1.5-0.8-3.3-0.8-4.8,0l-15.6,9
		c-1.5,0.9-2.4,2.4-2.4,4.1v49.6c0,1.7,0.9,3.3,2.4,4.1l15.6,9c1.5,0.9,3.3,0.9,4.8,0l11.3-6.5l11.3,6.5c1.5,0.8,3.3,0.8,4.8,0
		l15.6-9c1.5-0.9,2.4-2.4,2.4-4.1V27.9C86,26.2,85.1,24.7,83.6,23.8z M36.4,83.2l-10-5.8c-1.1-0.6-1.8-1.8-1.8-3.1V31.2
		c0-1.3,0.7-2.5,1.8-3.1l10-5.8c1.1-0.6,2.5-0.6,3.6,0l23.9,13.7c1.1,0.6,1.8,1.8,1.8,3.1v27.4c0,0.9-1,1.5-1.8,1l-3.9-2.2
		c-0.7-0.4-1.2-1.2-1.2-2.1V43c0-1.3-0.7-2.5-1.8-3.1L39.4,29.8c-0.7-0.4-1.7-0.4-2.4,0L33.3,32c-1.1,0.6-1.8,1.8-1.8,3.1v35.2
		c0,1.3,0.7,2.5,1.8,3.1l11.8,6.9L40,83.2C38.9,83.8,37.5,83.8,36.4,83.2z M63.8,83.2L40,69.5c-1.1-0.6-1.8-1.8-1.8-3.1V39
		c0-0.9,1-1.5,1.8-1l3.9,2.2c0.7,0.4,1.2,1.2,1.2,2.1v20.2c0,1.3,0.7,2.5,1.8,3.1l17.5,10.1c0.7,0.4,1.7,0.4,2.4,0l3.7-2.2
		c1.1-0.6,1.7-1.8,1.7-3.1V35.1c0-1.3-0.7-2.5-1.8-3.1l-11.8-6.8l5.1-2.9c1.1-0.6,2.5-0.6,3.6,0l10,5.8c1.1,0.6,1.8,1.8,1.8,3.1
		v43.1c0,1.3-0.7,2.5-1.8,3.1l-10,5.8C66.3,83.8,64.9,83.8,63.8,83.2z"/>
</g>
</svg>
