<?xml version="1.0" encoding="UTF-8"?>
<svg width="1312px" height="655px" viewBox="0 0 1312 655" version="1.1" xmlns="http://www.w3.org/2000/svg" xmlns:xlink="http://www.w3.org/1999/xlink">
    <!-- Generator: Sketch 52.3 (67297) - http://www.bohemiancoding.com/sketch -->
    <title>web-bg</title>
    <desc>Created with Sketch.</desc>
    <defs>
        <polygon id="path-1" points="0 218.386733 216.665245 218.386733 216.665245 0.424206638 0 0.424206638"></polygon>
        <polygon id="path-3" points="0 218.431263 217.576631 218.431263 217.576631 0.424206638 0 0.424206638"></polygon>
    </defs>
    <g id="web-bg" stroke="none" stroke-width="1" fill="none" fill-rule="evenodd">
        <rect fill="#FFFFFF" x="0" y="0" width="1312" height="655"></rect>
        <g id="Group-48-Copy">
            <g id="Group-37" transform="translate(871.000000, 437.000000)">
                <polygon id="Fill-1" fill="#FFFFFF" points="9.09494702e-13 217.576631 217.57572 217.576631 217.57572 2.27373675e-13 9.09494702e-13 2.27373675e-13"></polygon>
                <polygon id="Fill-2" fill="#2C66BF" points="143.926882 185.745356 168.159574 185.745356 168.159574 47.7167382 143.926882 47.7167382"></polygon>
                <polygon id="Fill-3" fill="#4285F4" points="109.234409 185.421163 133.467101 185.421163 133.467101 82.3347639 109.234409 82.3347639"></polygon>
                <polygon id="Fill-4" fill="#FABB05" points="76.8860215 185.786991 101.118714 185.786991 101.118714 116.95279 76.8860215 116.95279"></polygon>
                <polygon id="Fill-5" fill="#DF382B" points="44.0688172 185.378124 68.3015097 185.378124 68.3015097 150.167382 44.0688172 150.167382"></polygon>
            </g>
            <g id="Group-39" transform="translate(1089.000000, 437.000000)">
                <polygon id="Fill-6" fill="#4285F4" points="5.68434189e-13 217.576631 222.786331 217.576631 222.786331 1.13686838e-13 5.68434189e-13 1.13686838e-13"></polygon>
                <path d="M116.631799,61.751073 L161.041923,134.202858 L171.490732,116.849403 C174.11728,112.487532 174.089289,107.01882 171.418421,102.683614 L146.200293,61.751073 L116.631799,61.751073 Z" id="Fill-7" fill="#FFFFFF"></path>
                <polygon id="Fill-9" fill="#FFFFFF" points="143.34468 114.613734 158.745676 137.890614 145.925042 159.249 116.631799 159.249"></polygon>
                <path d="M108.127478,158.99685 L63.7173546,86.5450644 L53.2685449,103.898052 C50.6419968,108.260391 50.6699885,113.729103 53.3408567,118.064309 L78.5589843,158.99685 L108.127478,158.99685 Z" id="Fill-11" fill="#FFFFFF"></path>
                <polygon id="Fill-13" fill="#FFFFFF" points="81.7523598 106.386339 66.2468619 82.9513391 76.026205 61.751073 108.465241 61.751073"></polygon>
                <polygon id="Fill-15" fill="#4285F4" points="53.5461255 104.171253 81.5984059 57.0378755 64.14609 38.8283262 42.9205021 74.0652661"></polygon>
                <polygon id="Fill-17" fill="#4285F4" points="156.648636 189.312884 184.70045 142.179506 167.2486 123.969957 146.023013 159.206897"></polygon>
            </g>
            <g id="Group-44" transform="translate(871.000000, 217.000000)">
                <polygon id="Fill-19" fill="#B7251D" points="218 179.678785 2.27373675e-13 179.79661 2.27373675e-13 220.586093 0.370834409 220.586093 218 220.468268"></polygon>
                <polygon id="Fill-21" fill="#DF382B" points="218 0.373205945 0 0.226618644 0 179.697347 218 179.843935"></polygon>
                <path d="M0.484139503,0.468220339 C0.484139503,0.468220339 -6.9142648,39.6072267 36.1320621,42.293875 C36.1320621,42.293875 46.2458556,42.436214 47.9059374,53.569089 C49.5660191,64.701964 50.5149051,81.5195021 72.0973739,81.5195021 C72.0973739,81.5195021 78.7377008,82.4667119 78.9749223,91.4677797 C79.2121438,100.468847 84.1928578,105.205833 93.9165954,106.153511 L103.278406,106.153511 L103.278406,76.5451292 C103.278406,76.5451292 102.691916,61.9020064 89.1731029,59.867589 C75.6547589,57.8327034 67.3538814,51.2003623 67.1166599,41.4890042 C66.8794384,31.777178 67.1166599,0.468220339 67.1166599,0.468220339 L0.484139503,0.468220339 Z" id="Fill-23" fill="#EFF0F2"></path>
                <path d="M165.004434,130.62411 C165.004434,145.100078 153.254469,156.835085 138.760047,156.835085 C124.266095,156.835085 112.516129,145.100078 112.516129,130.62411 C112.516129,116.148142 124.266095,104.413136 138.760047,104.413136 C153.254469,104.413136 165.004434,116.148142 165.004434,130.62411 Z" id="Stroke-25" stroke="#FFFFFF" stroke-width="15"></path>
                <polygon id="Fill-27" fill="#FFFFFF" points="64.6967742 90.3665254 64.6967742 113.100496 82.0472301 180.026038 112.410176 180.026038 112.410176 90.3665254"></polygon>
                <polygon id="Fill-29" fill="#FFFFFF" points="144.758563 90.3665254 144.758563 113.100496 127.408108 180.026038 97.0451613 180.026038 97.0451613 90.3665254"></polygon>
                <polygon id="Fill-31" fill="#FABB05" points="124.610675 124.990015 97.0451613 109.095339 97.0451613 140.884691"></polygon>
            </g>
            <g id="Group-40" transform="translate(0.000000, 1.000000)">
                <polygon id="Fill-33" fill="#FFFFFF" points="0.162058378 329.567919 431.724921 329.567919 431.724921 0.000466809422 0.162058378 0.000466809422"></polygon>
                <polygon id="Fill-35" fill="#DFE1E5" points="0.162058378 435.854355 431.724921 435.854355 431.724921 329.568385 0.162058378 329.568385"></polygon>
                <path d="M357.107032,113.389082 C357.107032,78.6299859 325.735893,50.4580373 287.040368,50.4580373 C248.340174,50.4580373 216.969501,78.6299859 216.969501,113.389082 C216.969501,78.6299859 185.603032,50.4580373 146.907975,50.4580373 C108.207313,50.4580373 76.8361738,78.6299859 76.8361738,113.389082 C63.6949674,202.931065 216.969501,271.397536 216.969501,271.397536 C216.969501,271.397536 370.248239,202.931065 357.107032,113.389082" id="Fill-136" fill="#FABB05"></path>
                <polygon id="Fill-137" fill="#E64A19" points="202.893821 184.631062 231.056951 184.631062 231.056951 166.142608 202.893821 166.142608"></polygon>
                <path d="M246.717068,145.186506 L246.717068,146.834343 C246.712398,153.332331 244.587425,159.354172 240.991317,164.246335 C235.597155,171.603251 226.891771,176.397384 217.121565,176.397384 C207.70163,176.397384 199.276463,171.939354 193.844938,165.035243 C189.926582,160.049718 187.572765,153.794472 187.530733,147.011731 C187.526063,146.946378 187.526063,146.881024 187.526063,146.815671 L187.526063,145.186506 C187.526063,128.918198 200.845674,115.604793 217.121565,115.604793 C225.261846,115.604793 232.659555,118.933144 238.021025,124.296785 C243.387165,129.655757 246.717068,137.054686 246.717068,145.186506" id="Fill-138" fill="#FF8A65"></path>
                <path d="M189.37549,166.142515 C184.06259,166.142515 179.71597,161.797919 179.71597,156.487496 C179.71597,151.177072 184.06259,146.832476 189.37549,146.832476 C194.688389,146.832476 199.03501,151.177072 199.03501,156.487496 C199.03501,161.797919 194.688389,166.142515 189.37549,166.142515" id="Fill-139" fill="#FF8A65"></path>
                <path d="M246.716648,166.142515 C241.403748,166.142515 237.057128,161.797919 237.057128,156.487496 C237.057128,151.177072 241.403748,146.832476 246.716648,146.832476 C252.029547,146.832476 256.376168,151.177072 256.376168,156.487496 C256.376168,161.797919 252.029547,166.142515 246.716648,166.142515" id="Fill-140" fill="#FF8A65"></path>
                <path d="M211.366531,146.83229 C211.366531,148.721467 209.834216,150.252602 207.944624,150.252602 C206.054566,150.252602 204.52225,148.721467 204.52225,146.83229 C204.52225,144.943112 206.054566,143.411977 207.944624,143.411977 C209.834216,143.411977 211.366531,144.943112 211.366531,146.83229" id="Fill-141" fill="#260303"></path>
                <path d="M232.607341,146.83229 C232.607341,148.721467 231.075025,150.252602 229.185434,150.252602 C227.295376,150.252602 225.76306,148.721467 225.76306,146.83229 C225.76306,144.943112 227.295376,143.411977 229.185434,143.411977 C231.075025,143.411977 232.607341,144.943112 232.607341,146.83229" id="Fill-142" fill="#260303"></path>
                <path d="M190.81412,184.631062 C190.81412,184.631062 147.39882,199.042869 144.109549,238.493867 L131.611439,300.957636 L222.187594,300.957636 L222.187594,184.631062 L190.81412,184.631062 Z" id="Fill-143" fill="#23893C"></path>
                <path d="M242.255979,184.631062 C242.255979,184.631062 285.671279,199.042869 288.960083,238.493867 L301.459127,300.957636 L210.882505,300.957636 L210.882505,184.631062 L242.255979,184.631062 Z" id="Fill-144" fill="#23893C"></path>
                <polygon id="Fill-145" fill="#E64A19" points="217.121192 143.836913 217.121192 152.995248 224.513763 152.995248"></polygon>
                <path d="M208.165435,150.984513 C208.165435,156.835969 212.911363,161.579686 218.765547,161.579686 C224.619731,161.579686 229.365193,156.835969 229.365193,150.984513 L208.165435,150.984513 Z" id="Fill-146" fill="#FFFFFF"></path>
                <path d="M146.163814,376.676738 C147.067044,379.388434 145.599645,382.31813 142.886685,383.220473 C140.174192,384.123282 137.242664,382.656567 136.339901,379.945338 C135.437137,377.233642 136.904069,374.303946 139.617029,373.401137 C142.329522,372.498794 145.260584,373.965042 146.163814,376.676738" id="Fill-147" fill="#FF8A65"></path>
                <path d="M146.42194,378.020869 C146.42194,378.020869 154.82002,371.819773 175.70687,374.912852 L199.690109,357.081666 L163.453482,357.081666 L139.616889,373.401323 L146.42194,378.020869 Z" id="Fill-148" fill="#FF8A65"></path>
                <path d="M202.894007,184.631062 C202.894007,184.631062 213.834115,200.474107 231.057138,184.631062 L216.680645,181.368998 L214.524381,180.879782 L202.894007,184.631062 Z" id="Fill-149" fill="#E64A19"></path>
                <polygon id="Fill-150" fill="#34A853" points="195.848531 184.631062 237.477919 184.631062 251.620432 214.511533 247.847787 236.805418 227.455052 232.999054 176.899376 231.442711 175.706589 223.893936"></polygon>
                <path d="M160.074541,243.944427 L190.81426,184.631155 L195.848344,184.631155 L186.821646,213.96546 C185.125404,219.476612 189.248318,225.055451 195.017036,225.055451 L210.882411,225.055451 L210.882411,263.156436 L160.074541,243.944427 Z" id="Fill-151" fill="#34A853"></path>
                <path d="M273.251956,243.944427 L242.512237,184.631155 L237.478153,184.631155 L246.504851,213.96546 C248.201093,219.476612 244.078179,225.055451 238.309461,225.055451 L222.444086,225.055451 L222.444086,263.156436 L273.251956,243.944427 Z" id="Fill-152" fill="#34A853"></path>
                <polygon id="Fill-153" fill="#34A853" points="218.76536 300.957636 175.70687 300.957636 152.893066 225.044154 216.975713 225.044154"></polygon>
                <polygon id="Fill-154" fill="#34A853" points="214.911687 300.957636 257.970178 300.957636 280.783981 225.044154 216.701334 225.044154"></polygon>
                <polygon id="Fill-155" fill="#BABFC5" points="175.70701 300.957636 105.531996 335.668651 218.765501 340.240582 218.765501 300.957636"></polygon>
                <polygon id="Fill-156" fill="#BABFC5" points="257.970084 300.957636 328.292212 332.643259 215.046097 340.240582 215.046097 300.957636"></polygon>
                <path d="M140.534877,330.579121 C140.534877,347.117712 127.121394,360.524479 110.575561,360.524479 C94.0292601,360.524479 80.6157769,347.117712 80.6157769,330.579121 C80.6157769,314.04053 94.0292601,300.633297 110.575561,300.633297 C127.121394,300.633297 140.534877,314.04053 140.534877,330.579121" id="Fill-157" fill="#2C66BF"></path>
                <path d="M245.477625,337.711316 L164.658598,317.906926 C154.345707,315.37962 144.328912,311.692759 135.002382,306.619007 C122.179688,299.643007 110.575467,300.633577 110.575467,300.633577 L110.575467,360.524759 L245.477625,360.524759 L245.477625,337.711316" id="Fill-158" fill="#2C66BF"></path>
                <path d="M307.605717,367.567046 C306.345678,371.350069 308.392657,375.437919 312.177911,376.696904 C315.962698,377.956356 320.052454,375.910331 321.312026,372.127307 C322.572065,368.344284 320.525085,364.256433 316.739831,362.996982 C312.955044,361.737997 308.865756,363.784022 307.605717,367.567046" id="Fill-159" fill="#FF8A65"></path>
                <path d="M307.245592,369.442453 C307.245592,369.442453 262.067266,361.733095 232.925713,366.048281 L232.925713,340.228119 L283.48279,340.228119 L316.739785,362.997215 L307.245592,369.442453 Z" id="Fill-160" fill="#FF8A65"></path>
                <path d="M246.289552,340.228259 C246.289552,340.228259 253.049301,340.661925 256.169508,335.984027 C259.289249,331.30613 268.364985,325.241809 283.483117,340.228259 L269.065059,352.304152 L246.289552,340.228259 Z" id="Fill-161" fill="#FF8A65"></path>
                <path d="M306.558782,329.634019 C306.558782,344.15646 318.337204,355.929394 332.866415,355.929394 C347.395626,355.929394 359.174047,344.15646 359.174047,329.634019 C359.174047,315.111578 347.395626,303.338644 332.866415,303.338644 C318.337204,303.338644 306.558782,315.111578 306.558782,329.634019" id="Fill-162" fill="#4285F4"></path>
                <path d="M321.683733,316.824301 C337.000818,310.13679 332.866695,303.339111 332.866695,303.339111 L332.866695,355.92986 C332.866695,355.92986 274.832982,369.442593 175.706963,374.912666 L175.706963,360.524666 C175.706963,360.524666 196.863287,359.389852 220.355214,345.786092 C244.509852,331.799081 293.873207,319.753997 310.033277,320.598922 L314.458825,327.144524 C315.128541,322.160867 315.957981,319.324066 321.683733,316.824301" id="Fill-163" fill="#4285F4"></path>
                <path d="M308.40041,373.774911 C308.40041,373.774911 306.153543,368.687622 302.420596,368.69089 L315.456721,367.727395 L308.40041,373.774911 Z" id="Fill-164" fill="#FF8A65"></path>
                <path d="M246.717068,145.186506 L246.717068,146.815671 L241.248182,146.834343 L241.248182,135.019397 L192.915555,135.019397 L192.915555,146.815671 L187.526063,146.815671 L187.526063,145.186506 C187.526063,128.918198 200.845674,115.604793 217.121565,115.604793 C225.261846,115.604793 232.659555,118.933144 238.021025,124.296785 C243.387165,129.655757 246.717068,137.054686 246.717068,145.186506" id="Fill-165" fill="#260303"></path>
                <path d="M217.121472,115.604793 L242.701943,115.604793 C242.701943,115.604793 247.43713,113.731954 247.842977,110.215945 C247.842977,110.215945 251.901909,116.165898 245.542869,121.575286 L257.042942,121.575286 C257.042942,121.575286 256.376495,133.340284 245.477485,136.740523 L235.661511,126.849299 L218.620162,124.550262 L217.121472,115.604793 Z" id="Fill-166" fill="#260303"></path>
                <path d="M29.0729929,225.055404 L47.9413518,229.42334 L49.500288,234.276758 C49.500288,234.276758 34.0720502,232.951486 28.5788783,227.187323 L29.0729929,225.055404 Z" id="Fill-167" fill="#E64A19"></path>
                <path d="M28.636416,229.69493 L47.9811425,228.751041 L50.8057219,232.995272 C50.8057219,232.995272 35.6011901,235.928236 28.7433652,231.880531 L28.636416,229.69493 Z" id="Fill-168" fill="#E64A19"></path>
                <path d="M151.717279,215.169688 L129.335009,257.548981 L64.7708575,226.82872 L51.698771,224.794364 L31.4522154,217.517739 L31.4522154,220.262112 C38.392237,236.409983 59.1160943,236.441726 59.1160943,236.441726 L110.525495,281.96078 C120.101885,290.440373 134.927658,288.710844 142.293141,278.25478 L155.935,250.592587 L151.717279,215.169688 Z" id="Fill-169" fill="#FF8A65"></path>
                <path d="M129.334962,257.549168 L151.402456,213.813793 C162.846954,188.317596 190.813933,184.631202 190.813933,184.631202 L142.293094,278.2545 L129.334962,257.549168 Z" id="Fill-170" fill="#FF8A65"></path>
                <path d="M53.6420238,215.169688 C53.6420238,215.169688 50.6231611,226.673739 59.1137124,226.673739" id="Stroke-171" stroke="#FF8A65" stroke-width="10.317" stroke-linecap="round" stroke-linejoin="round"></path>
                <path d="M65.909843,216.006117 C65.909843,216.006117 68.9287057,227.510168 60.4381544,227.510168" id="Stroke-172" stroke="#FF8A65" stroke-width="10.317" stroke-linecap="round" stroke-linejoin="round"></path>
                <path d="M64.7710443,220.262018 C64.7710443,223.074545 62.4900843,225.354442 59.6762465,225.354442 C56.8624086,225.354442 54.5814486,223.074545 54.5814486,220.262018 C54.5814486,217.449492 56.8624086,215.169594 59.6762465,215.169594 C62.4900843,215.169594 64.7710443,217.449492 64.7710443,220.262018" id="Fill-173" fill="#FFFFFF"></path>
                <path d="M129.334962,257.549168 C129.334962,257.549168 122.670954,238.085549 144.351749,227.787266 C144.351749,227.787266 150.799057,189.305365 187.526063,185.287069 L175.706543,200.260448 L149.87341,249.792196 L131.611252,279.672667 L129.334962,257.549168 Z" id="Fill-174" fill="#FF8A65"></path>
                <path d="M66.431232,227.618748 C66.431232,227.618748 68.7182634,231.494667 74.4683001,231.442851 C80.7199239,231.386834 108.253035,236.021318 129.335102,257.549168 L120.37192,268.943052 L72.9840882,236.805091 L66.431232,227.618748 Z" id="Fill-175" fill="#FF8A65"></path>
                <path d="M404.256259,225.055404 L385.387901,229.42334 L383.828964,234.276758 C383.828964,234.276758 399.257202,232.951486 404.750374,227.187323 L404.256259,225.055404 Z" id="Fill-176" fill="#E64A19"></path>
                <path d="M404.692836,229.69493 L385.34811,228.751041 L382.52353,232.995272 C382.52353,232.995272 397.728062,235.928236 404.585887,231.880531 L404.692836,229.69493 Z" id="Fill-177" fill="#E64A19"></path>
                <path d="M281.611973,215.169688 L303.994243,257.548981 L368.558395,226.82872 L381.630481,224.794364 L401.877037,217.517739 L401.877037,220.262112 C394.937015,236.409983 374.213158,236.441726 374.213158,236.441726 L322.803757,281.96078 C313.227368,290.440373 298.401595,288.710844 291.036112,278.25478 L277.394252,250.592587 L281.611973,215.169688 Z" id="Fill-178" fill="#FF8A65"></path>
                <path d="M303.99429,257.549168 L281.927263,213.813793 C270.482299,188.317596 242.515319,184.631202 242.515319,184.631202 L291.036158,278.2545 L303.99429,257.549168 Z" id="Fill-179" fill="#FF8A65"></path>
                <path d="M379.687229,215.169688 C379.687229,215.169688 382.706091,226.673739 374.21554,226.673739" id="Stroke-180" stroke="#FF8A65" stroke-width="10.317" stroke-linecap="round" stroke-linejoin="round"></path>
                <path d="M367.419409,216.006117 C367.419409,216.006117 364.400547,227.510168 372.891098,227.510168" id="Stroke-181" stroke="#FF8A65" stroke-width="10.317" stroke-linecap="round" stroke-linejoin="round"></path>
                <path d="M368.558208,220.262018 C368.558208,223.074545 370.839168,225.354442 373.653006,225.354442 C376.466844,225.354442 378.747804,223.074545 378.747804,220.262018 C378.747804,217.449492 376.466844,215.169594 373.653006,215.169594 C370.839168,215.169594 368.558208,217.449492 368.558208,220.262018" id="Fill-182" fill="#FFFFFF"></path>
                <path d="M303.99429,257.549168 C303.99429,257.549168 310.658299,238.085549 288.977503,227.787266 C288.977503,227.787266 282.530195,189.305365 245.80319,185.287069 L257.62271,200.260448 L283.455843,249.792196 L301.718,279.672667 L303.99429,257.549168 Z" id="Fill-183" fill="#FF8A65"></path>
                <path d="M366.89802,227.618748 C366.89802,227.618748 364.610989,231.494667 358.860952,231.442851 C352.609328,231.386834 325.076217,236.021318 303.99415,257.549168 L312.957333,268.943052 L360.345164,236.805091 L366.89802,227.618748 Z" id="Fill-184" fill="#FF8A65"></path>
                <path d="M66.431232,227.618748 C66.431232,227.618748 67.1313055,232.385339 74.4683001,231.442851 C81.8052947,230.500363 84.0671066,226.673926 84.0671066,226.673926 L83.071872,222.362007 L66.431232,227.618748 Z" id="Fill-185" fill="#FFFFFF"></path>
                <path d="M202.894007,184.634983 C202.894007,192.408294 209.198405,198.709754 216.975339,198.709754 C224.75274,198.709754 231.057138,192.408294 231.057138,184.634983 L202.894007,184.634983 Z" id="Fill-186" fill="#E64A19"></path>
                <polygon id="Fill-187" fill="#4285F4" points="175.70701 374.912852 175.70701 348.733713 324.469596 304.707049 328.292212 332.643259 316.739831 350.409559"></polygon>
            </g>
            <g id="Group-34" transform="translate(650.000000, 437.000000)">
                <polygon id="Fill-36" fill="#EFF0F2" points="0 217.883515 220.731342 217.883515 220.731342 1.13686838e-13 0 1.13686838e-13"></polygon>
                <path d="M173.850374,117.825725 L48.3270465,117.825725 C33.0537505,117.825725 20.5581395,105.314116 20.5581395,90.0223047 C20.5581395,74.7304936 33.0537505,62.2188841 48.3270465,62.2188841 L173.850374,62.2188841 C189.123203,62.2188841 201.619281,74.7304936 201.619281,90.0223047 C201.619281,105.314116 189.123203,117.825725 173.850374,117.825725" id="Fill-37" fill="#2C66BF"></path>
                <path d="M146.259469,105.418768 C143.981253,106.54245 141.374575,107.100549 138.622587,106.913424 C131.340801,106.417544 125.406507,100.568969 124.803312,93.2860852 C124.239833,86.478965 128.244932,80.523729 134.082976,78.160347 C134.546936,77.9722869 134.926795,78.5678105 134.567494,78.9163298 C131.585162,81.8059993 129.802211,85.9325616 130.042367,90.4661195 C130.422693,97.6446817 135.976194,103.615823 143.103795,104.478467 C144.098061,104.599162 145.074573,104.619278 146.025854,104.55051 C146.525323,104.514489 146.708945,105.197025 146.259469,105.418768" id="Fill-38" fill="#FFFFFF"></path>
                <path d="M44.7270359,100.728631 C43.5122368,100.728631 42.5179704,99.7335966 42.5179704,98.5168197 L42.5179704,91.5632747 C42.5179704,90.3469657 43.5122368,89.3519313 44.7270359,89.3519313 C45.9418351,89.3519313 46.9361015,90.3469657 46.9361015,91.5632747 L46.9361015,98.5168197 C46.9361015,99.7335966 45.9418351,100.728631 44.7270359,100.728631" id="Fill-39" fill="#FABB05"></path>
                <path d="M38.7801268,94.8384206 C38.7801268,93.6221116 39.773926,92.6266094 40.9891924,92.6266094 L47.9341057,92.6266094 C49.1489049,92.6266094 50.142704,93.6221116 50.142704,94.8384206 C50.142704,96.0547296 49.1489049,97.0502318 47.9341057,97.0502318 L40.9891924,97.0502318 C39.773926,97.0502318 38.7801268,96.0547296 38.7801268,94.8384206" id="Fill-40" fill="#FABB05"></path>
                <path d="M95.6551543,86.6942961 C94.4403552,86.6942961 93.4460888,85.6992618 93.4460888,84.482485 L93.4460888,77.5289399 C93.4460888,76.3126309 94.4403552,75.3175966 95.6551543,75.3175966 C96.8699535,75.3175966 97.8642199,76.3126309 97.8642199,77.5289399 L97.8642199,84.482485 C97.8642199,85.6992618 96.8699535,86.6942961 95.6551543,86.6942961" id="Fill-41" fill="#FABB05"></path>
                <path d="M90.1754757,80.8040858 C90.1754757,79.5877768 91.1692748,78.5922747 92.3845412,78.5922747 L99.3294545,78.5922747 C100.544254,78.5922747 101.538053,79.5877768 101.538053,80.8040858 C101.538053,82.0203948 100.544254,83.015897 99.3294545,83.015897 L92.3845412,83.015897 C91.1692748,83.015897 90.1754757,82.0203948 90.1754757,80.8040858" id="Fill-42" fill="#FABB05"></path>
                <path d="M173.682638,102.599876 C172.467839,102.599876 171.473573,101.604841 171.473573,100.388064 L171.473573,93.4345193 C171.473573,92.2182103 172.467839,91.223176 173.682638,91.223176 C174.897438,91.223176 175.891704,92.2182103 175.891704,93.4345193 L175.891704,100.388064 C175.891704,101.604841 174.897438,102.599876 173.682638,102.599876" id="Fill-43" fill="#FABB05"></path>
                <path d="M168.20296,97.1774764 C168.20296,95.9611674 169.196759,94.9656652 170.412025,94.9656652 L177.356939,94.9656652 C178.571738,94.9656652 179.565537,95.9611674 179.565537,97.1774764 C179.565537,98.3937854 178.571738,99.3892876 177.356939,99.3892876 L170.412025,99.3892876 C169.196759,99.3892876 168.20296,98.3937854 168.20296,97.1774764" id="Fill-44" fill="#FABB05"></path>
                <path d="M90.192296,170.517635 C88.3841142,170.517635 86.9048626,169.036545 86.9048626,167.226116 L86.9048626,144.10221 C86.9048626,142.292249 88.3841142,140.811159 90.192296,140.811159 C92.0004778,140.811159 93.4797294,142.292249 93.4797294,144.10221 L93.4797294,167.226116 C93.4797294,169.036545 92.0004778,170.517635 90.192296,170.517635" id="Fill-45" fill="#959CA5"></path>
                <path d="M118.226123,170.517635 C116.417941,170.517635 114.938689,169.036545 114.938689,167.226116 L114.938689,144.10221 C114.938689,142.292249 116.417941,140.811159 118.226123,140.811159 C120.034304,140.811159 121.513556,142.292249 121.513556,144.10221 L121.513556,167.226116 C121.513556,169.036545 120.034304,170.517635 118.226123,170.517635" id="Fill-46" fill="#959CA5"></path>
                <path d="M132.243036,173.113052 C130.434854,173.113052 128.955603,171.631961 128.955603,169.821532 L128.955603,142.231433 C128.955603,140.421004 130.434854,138.939914 132.243036,138.939914 C134.051218,138.939914 135.530469,140.421004 135.530469,142.231433 L135.530469,169.821532 C135.530469,171.631961 134.051218,173.113052 132.243036,173.113052" id="Fill-47" fill="#959CA5"></path>
                <path d="M104.209209,176.606197 C102.401027,176.606197 100.921776,175.125107 100.921776,173.314678 L100.921776,138.488476 C100.921776,136.678515 102.401027,135.197425 104.209209,135.197425 C106.017391,135.197425 107.496643,136.678515 107.496643,138.488476 L107.496643,173.314678 C107.496643,175.125107 106.017391,176.606197 104.209209,176.606197" id="Fill-48" fill="#959CA5"></path>
            </g>
            <g id="Group-45" transform="translate(1089.000000, 0.000000)">
                <polygon id="Fill-49" fill="#CDD0D5" points="0 437.792453 222.693492 437.792453 222.693492 0 0 0"></polygon>
                <path d="M94.5589979,368.510856 C94.5589979,387.445825 79.2396444,402.795458 60.3420272,402.795458 C41.4448766,402.795458 26.125523,387.445825 26.125523,368.510856 C26.125523,349.575887 41.4448766,334.226254 60.3420272,334.226254 C79.2396444,334.226254 94.5589979,349.575887 94.5589979,368.510856" id="Fill-50" fill="#EFEFEF"></path>
                <path d="M169.632088,315.267445 L43.7233954,315.267445 C33.2745858,315.267445 24.7259414,306.701904 24.7259414,296.232442 C24.7259414,285.76298 33.2745858,277.197439 43.7233954,277.197439 L169.632088,277.197439 C180.080897,277.197439 188.629542,285.76298 188.629542,296.232442 C188.629542,306.701904 180.080897,315.267445 169.632088,315.267445" id="Fill-51" fill="#4285F4"></path>
                <path d="M169.632088,259.173528 L43.7233954,259.173528 C33.2745858,259.173528 24.7259414,250.607987 24.7259414,240.138525 C24.7259414,229.669063 33.2745858,221.103522 43.7233954,221.103522 L169.632088,221.103522 C180.080897,221.103522 188.629542,229.669063 188.629542,240.138525 C188.629542,250.607987 180.080897,259.173528 169.632088,259.173528" id="Fill-52" fill="#FFFFFF"></path>
                <path d="M169.632088,203.079612 L43.7233954,203.079612 C33.2745858,203.079612 24.7259414,194.51407 24.7259414,184.044608 C24.7259414,173.575146 33.2745858,165.009605 43.7233954,165.009605 L169.632088,165.009605 C180.080897,165.009605 188.629542,173.575146 188.629542,184.044608 C188.629542,194.51407 180.080897,203.079612 169.632088,203.079612" id="Fill-53" fill="#4285F4"></path>
                <path d="M169.632088,146.985695 L43.7233954,146.985695 C33.2745858,146.985695 24.7259414,138.419686 24.7259414,127.950692 C24.7259414,117.481229 33.2745858,108.915688 43.7233954,108.915688 L169.632088,108.915688 C180.080897,108.915688 188.629542,117.481229 188.629542,127.950692 C188.629542,138.419686 180.080897,146.985695 169.632088,146.985695" id="Fill-54" fill="#FFFFFF"></path>
                <path d="M169.632088,91.3592273 L43.7233954,91.3592273 C33.2745858,91.3592273 24.7259414,82.7936862 24.7259414,72.3242241 C24.7259414,61.854762 33.2745858,53.2892209 43.7233954,53.2892209 L169.632088,53.2892209 C180.080897,53.2892209 188.629542,61.854762 188.629542,72.3242241 C188.629542,82.7936862 180.080897,91.3592273 169.632088,91.3592273" id="Fill-55" fill="#4285F4"></path>
                <path d="M60.3345628,361.181251 C60.3345628,366.515782 56.0187197,370.840623 50.6942448,370.840623 C45.3702364,370.840623 41.0543933,366.515782 41.0543933,361.181251 C41.0543933,355.846719 45.3702364,351.521878 50.6942448,351.521878 C56.0187197,351.521878 60.3345628,355.846719 60.3345628,361.181251" id="Fill-56" fill="#3E83F9"></path>
                <path d="M71.2722929,366.193242 C71.2722929,368.874531 69.1029414,371.048171 66.4269414,371.048171 C63.7509414,371.048171 61.58159,368.874531 61.58159,366.193242 C61.58159,363.511953 63.7509414,361.338314 66.4269414,361.338314 C69.1029414,361.338314 71.2722929,363.511953 71.2722929,366.193242" id="Fill-57" fill="#ED402D"></path>
                <path d="M75.6044644,360.416971 C75.6044644,361.715078 74.5543117,362.767774 73.2582992,362.767774 C71.9627531,362.767774 70.9121339,361.715078 70.9121339,360.416971 C70.9121339,359.118864 71.9627531,358.066169 73.2582992,358.066169 C74.5543117,358.066169 75.6044644,359.118864 75.6044644,360.416971" id="Fill-58" fill="#2DA94F"></path>
                <path d="M72.1171736,378.069259 C72.1171736,381.113289 69.6543766,383.580954 66.6163515,383.580954 C63.5778598,383.580954 61.1150628,381.113289 61.1150628,378.069259 C61.1150628,375.025229 63.5778598,372.557097 66.6163515,372.557097 C69.6543766,372.557097 72.1171736,375.025229 72.1171736,378.069259" id="Fill-59" fill="#FEC000"></path>
                <polygon id="Fill-107" fill="#FFFFFF" points="167.016736 259.187084 197.112406 259.187084 173.566312 235.59445"></polygon>
                <polygon id="Fill-109" fill="#FFFFFF" points="169.349372 259.311426 188.471856 259.311426 188.471856 241.671291 169.349372 241.671291"></polygon>
                <polygon id="Fill-111" fill="#FFFFFF" points="167.016736 146.999251 197.112406 146.999251 173.566312 123.406617"></polygon>
                <polygon id="Fill-112" fill="#FFFFFF" points="169.349372 147.12406 188.471856 147.12406 188.471856 129.483458 169.349372 129.483458"></polygon>
            </g>
            <g id="Group-43" transform="translate(650.000000, 0.000000)">
                <polygon id="Fill-60" fill="#FFFFFF" points="-3.12638804e-13 436.802043 220.994381 436.802043 220.994381 0 -3.12638804e-13 0"></polygon>
                <path d="M166.199492,376.748158 L52.0033602,376.748158 C40.9130932,376.748158 31.8389831,367.700017 31.8389831,356.641489 L31.8389831,65.394062 C31.8389831,54.3350673 40.9130932,45.2873932 52.0033602,45.2873932 L166.199492,45.2873932 C177.289758,45.2873932 186.363869,54.3350673 186.363869,65.3935951 L186.363869,356.641489 C186.363869,367.700017 177.289758,376.748158 166.199492,376.748158" id="Fill-61" fill="#2C66BF"></path>
                <path d="M58.0799237,61.1524541 C58.0799237,62.9527447 56.607839,64.4117457 54.7920805,64.4117457 C52.976322,64.4117457 51.5042373,62.9527447 51.5042373,61.1524541 C51.5042373,59.3521635 52.976322,57.8931624 54.7920805,57.8931624 C56.607839,57.8931624 58.0799237,59.3521635 58.0799237,61.1524541" id="Fill-62" fill="#FFFFFF"></path>
                <path d="M123.75485,64.4122126 L94.122589,64.4122126 C92.314322,64.4122126 90.8347458,62.9452746 90.8347458,61.1529209 C90.8347458,59.3601004 92.314322,57.8931624 94.122589,57.8931624 L123.75485,57.8931624 C125.563117,57.8931624 127.042693,59.3601004 127.042693,61.1529209 C127.042693,62.9452746 125.563117,64.4122126 123.75485,64.4122126" id="Fill-63" fill="#FFFFFF"></path>
                <path d="M114.546828,76.5511015 L103.018307,76.5511015 C101.21004,76.5511015 99.7309322,75.0841635 99.7309322,73.2918098 C99.7309322,71.4989893 101.21004,70.0320513 103.018307,70.0320513 L114.546828,70.0320513 C116.355095,70.0320513 117.834672,71.4989893 117.834672,73.2918098 C117.834672,75.0841635 116.355095,76.5511015 114.546828,76.5511015" id="Fill-64" fill="#81C784"></path>
                <polygon id="Fill-65" fill="#FFFFFF" points="39.7987288 331.945854 178.748733 331.945854 178.748733 87.7735043 39.7987288 87.7735043"></polygon>
                <path d="M136.179076,201.505089 C136.179076,215.841116 124.456244,227.463169 109.995258,227.463169 C95.5342733,227.463169 83.8114407,215.841116 83.8114407,201.505089 C83.8114407,187.168594 95.5342733,175.547009 109.995258,175.547009 C124.456244,175.547009 136.179076,187.168594 136.179076,201.505089" id="Fill-66" fill="#FABB05"></path>
                <polygon id="Fill-67" fill="#FABB05" points="83.8114407 237.930626 136.179076 237.930626 136.179076 201.692308 83.8114407 201.692308"></polygon>
                <polygon id="Fill-68" fill="#FABB05" points="74.9152542 248.793064 144.605638 248.793064 144.605638 237.642094 74.9152542 237.642094"></polygon>
                <path d="M119.108231,178.151734 C119.108231,183.200111 114.979932,187.292784 109.887568,187.292784 C104.795203,187.292784 100.667373,183.200111 100.667373,178.151734 C100.667373,173.103357 104.795203,169.010684 109.887568,169.010684 C114.979932,169.010684 119.108231,173.103357 119.108231,178.151734" id="Fill-69" fill="#FABB05"></path>
                <path d="M119.576451,248.650666 C119.576451,253.699043 115.448153,257.791716 110.355788,257.791716 C105.263892,257.791716 101.135593,253.699043 101.135593,248.650666 C101.135593,243.602288 105.263892,239.509615 110.355788,239.509615 C115.448153,239.509615 119.576451,243.602288 119.576451,248.650666" id="Fill-70" fill="#FABB05"></path>
                <polygon id="Fill-71" fill="#FFFFFF" points="91.3029661 250.980399 127.859269 250.980399 127.859269 248.847222 91.3029661 248.847222"></polygon>
                <path d="M149.578606,163.875 C149.103362,164.97497 148.474074,166.216872 147.650943,167.489588 C145.245695,171.206889 142.005142,173.904524 138.125,175.454099 C142.005142,177.003675 145.245695,179.700843 147.650943,183.418611 C148.474074,184.69086 149.103362,185.933229 149.578606,187.033199 C150.054318,185.933229 150.683138,184.69086 151.506737,183.418611 C153.911517,179.700843 157.152538,177.003675 161.031744,175.454099 C157.152538,173.904524 153.911517,171.206889 151.506737,167.489588 C150.683138,166.216872 150.054318,164.97497 149.578606,163.875" id="Fill-72" fill="#FABB05"></path>
                <path d="M74.9152542,237.570543 C74.9152542,237.570543 82.1253792,238.271797 83.2088411,229.72742 C84.292303,221.183043 88.6893602,238.620556 88.6893602,238.620556 L83.2088411,244.026097 L74.9152542,237.570543 Z" id="Fill-73" fill="#FABB05"></path>
                <path d="M144.875801,237.570543 C144.875801,237.570543 137.665676,238.271797 136.582214,229.72742 C135.498752,221.183043 131.101695,238.620556 131.101695,238.620556 L136.582214,244.026097 L144.875801,237.570543 Z" id="Fill-74" fill="#FABB05"></path>
                <path d="M132.862672,155.142937 C132.862672,158.829424 129.848269,161.817925 126.129663,161.817925 C122.411057,161.817925 119.396186,158.829424 119.396186,155.142937 C119.396186,151.45645 122.411057,148.467949 126.129663,148.467949 C129.848269,148.467949 132.862672,151.45645 132.862672,155.142937" id="Fill-75" fill="#DF382B"></path>
                <path d="M149.540212,148.537514 C149.540212,150.380757 148.033011,151.875241 146.173708,151.875241 C144.314405,151.875241 142.807203,150.380757 142.807203,148.537514 C142.807203,146.69427 144.314405,145.199786 146.173708,145.199786 C148.033011,145.199786 149.540212,146.69427 149.540212,148.537514" id="Fill-76" fill="#4285F4"></path>
            </g>
            <g id="Group-42" transform="translate(432.000000, 217.000000)">
                <polygon id="Fill-77" fill="#4285F4" points="0.184371795 219.950488 218.571359 219.950488 218.571359 0.373205945 0.184371795 0.373205945"></polygon>
                <path d="M81.8736179,70.3554395 L25.6949705,70.3554395 C22.1479192,70.3554395 19.2461692,67.4585393 19.2461692,63.9184544 C19.2461692,60.3779023 22.1479192,57.4814692 25.6949705,57.4814692 L81.8736179,57.4814692 C85.4206692,57.4814692 88.3224192,60.3779023 88.3224192,63.9184544 C88.3224192,67.4585393 85.4206692,70.3554395 81.8736179,70.3554395" id="Fill-78" fill="#FABB05"></path>
                <path d="M114.469101,90.860327 L58.2904532,90.860327 C54.7434019,90.860327 51.8416519,87.9634268 51.8416519,84.4233418 C51.8416519,80.8827898 54.7434019,77.9863567 58.2904532,77.9863567 L114.469101,77.9863567 C118.016152,77.9863567 120.917902,80.8827898 120.917902,84.4233418 C120.917902,87.9634268 118.016152,90.860327 114.469101,90.860327" id="Fill-79" fill="#FABB05"></path>
                <path d="M189.889519,90.860327 L133.710871,90.860327 C130.16382,90.860327 127.26207,87.9634268 127.26207,84.4233418 C127.26207,80.8827898 130.16382,77.9863567 133.710871,77.9863567 L189.889519,77.9863567 C193.43657,77.9863567 196.33832,80.8827898 196.33832,84.4233418 C196.33832,87.9634268 193.43657,90.860327 189.889519,90.860327" id="Fill-80" fill="#FABB05"></path>
                <path d="M71.5106596,137.768484 L15.3320122,137.768484 C11.7849609,137.768484 8.8832109,134.871584 8.8832109,131.331499 C8.8832109,127.790947 11.7849609,124.894514 15.3320122,124.894514 L71.5106596,124.894514 C75.0577109,124.894514 77.9594609,127.790947 77.9594609,131.331499 C77.9594609,134.871584 75.0577109,137.768484 71.5106596,137.768484" id="Fill-81" fill="#FABB05"></path>
                <path d="M153.334909,137.768484 L97.1562615,137.768484 C93.6092103,137.768484 90.7074603,134.871584 90.7074603,131.331499 C90.7074603,127.790947 93.6092103,124.894514 97.1562615,124.894514 L153.334909,124.894514 C156.88196,124.894514 159.78371,127.790947 159.78371,131.331499 C159.78371,134.871584 156.88196,137.768484 153.334909,137.768484" id="Fill-82" fill="#CDDC39"></path>
                <path d="M87.6293404,114.314476 L31.4506929,114.314476 C27.9036417,114.314476 25.0018917,111.417575 25.0018917,107.87749 C25.0018917,104.336938 27.9036417,101.440038 31.4506929,101.440038 L87.6293404,101.440038 C91.1763917,101.440038 94.0781417,104.336938 94.0781417,107.87749 C94.0781417,111.417575 91.1763917,114.314476 87.6293404,114.314476" id="Fill-83" fill="#FFFFFF"></path>
                <path d="M191.094721,40.0246327 L134.916073,40.0246327 C131.369022,40.0246327 128.467272,37.1277325 128.467272,33.5876476 C128.467272,30.0470955 131.369022,27.1501953 134.916073,27.1501953 L191.094721,27.1501953 C194.641772,27.1501953 197.543522,30.0470955 197.543522,33.5876476 C197.543522,37.1277325 194.641772,40.0246327 191.094721,40.0246327" id="Fill-84" fill="#FABB05"></path>
                <path d="M112.656408,40.0246327 L101.055023,40.0246327 C97.5084397,40.0246327 94.6062218,37.1277325 94.6062218,33.5876476 C94.6062218,30.0470955 97.5084397,27.1501953 101.055023,27.1501953 L112.656408,27.1501953 C116.203459,27.1501953 119.105209,30.0470955 119.105209,33.5876476 C119.105209,37.1277325 116.203459,40.0246327 112.656408,40.0246327" id="Fill-85" fill="#FABB05"></path>
                <path d="M120.812988,114.314476 L109.211603,114.314476 C105.664552,114.314476 102.762802,111.417575 102.762802,107.87749 C102.762802,104.336938 105.664552,101.440038 109.211603,101.440038 L120.812988,101.440038 C124.360039,101.440038 127.261789,104.336938 127.261789,107.87749 C127.261789,111.417575 124.360039,114.314476 120.812988,114.314476" id="Fill-86" fill="#CDDC39"></path>
                <path d="M206.218589,114.257771 L194.617204,114.257771 C191.070153,114.257771 188.168403,111.36087 188.168403,107.820786 C188.168403,104.280234 191.070153,101.3838 194.617204,101.3838 L206.218589,101.3838 C209.76564,101.3838 212.66739,104.280234 212.66739,107.820786 C212.66739,111.36087 209.76564,114.257771 206.218589,114.257771" id="Fill-87" fill="#FFFFFF"></path>
                <path d="M146.585217,152.955864 L202.763864,152.955864 C206.310915,152.955864 209.212665,155.852764 209.212665,159.392849 C209.212665,162.933401 206.310915,165.829834 202.763864,165.829834 L146.585217,165.829834 C143.038165,165.829834 140.136415,162.933401 140.136415,159.392849 C140.136415,155.852764 143.038165,152.955864 146.585217,152.955864" id="Fill-88" fill="#FABB05"></path>
                <path d="M37.3641609,183.286671 L93.5428083,183.286671 C97.0898596,183.286671 99.9916096,186.183571 99.9916096,189.723656 C99.9916096,193.264208 97.0898596,196.161108 93.5428083,196.161108 L37.3641609,196.161108 C33.8171096,196.161108 30.9153596,193.264208 30.9153596,189.723656 C30.9153596,186.183571 33.8171096,183.286671 37.3641609,183.286671" id="Fill-89" fill="#FABB05"></path>
                <path d="M115.80238,183.286671 L127.403765,183.286671 C130.950348,183.286671 133.852566,186.183571 133.852566,189.723656 C133.852566,193.264208 130.950348,196.161108 127.403765,196.161108 L115.80238,196.161108 C112.255329,196.161108 109.353579,193.264208 109.353579,189.723656 C109.353579,186.183571 112.255329,183.286671 115.80238,183.286671" id="Fill-90" fill="#FABB05"></path>
                <path d="M177.632257,112.681011 L177.632257,112.792645 C177.571892,147.415321 149.438815,175.462285 114.735738,175.462285 C79.9985006,175.462285 51.8396865,147.355066 51.8396865,112.681011 C51.8396865,78.0849597 79.8777699,50.0202463 114.51159,49.9002038 L114.735738,49.9002038 C149.473443,49.9002038 177.632257,78.0074225 177.632257,112.681011" id="Fill-91" fill="#2C66BF"></path>
                <path d="M177.629917,112.677507 L177.629917,112.785873 L114.520013,112.785873 L114.520013,49.9004374 L114.737142,49.9004374 C138.507533,49.9004374 159.181975,63.0555966 169.881622,82.463707 C174.824097,91.4267219 177.629917,101.727486 177.629917,112.677507" id="Fill-92" fill="#FFFFFF"></path>
                <path d="M177.629917,112.677507 L177.629917,112.785873 L114.520013,112.785873 L169.881622,82.463707 C174.824097,91.4267219 177.629917,101.727486 177.629917,112.677507" id="Fill-93" fill="#DF382B"></path>
            </g>
            <g id="Group-107" transform="translate(432.000000, 0.000000)">
                <g id="Group-106" transform="translate(0.000000, 0.037499)">
                    <polygon id="Fill-95" fill="#DFE1E5" points="0.398776119 218.299548 218.647919 218.299548 218.647919 0.431706424 0.398776119 0.431706424"></polygon>
                    <path d="M157.491445,86.9799384 C157.491445,93.8098997 151.962746,99.3466166 145.14246,99.3466166 C138.322174,99.3466166 132.793475,93.8098997 132.793475,86.9799384 C132.793475,80.1499772 138.322174,74.6127915 145.14246,74.6127915 C151.962746,74.6127915 157.491445,80.1499772 157.491445,86.9799384" id="Fill-97" fill="#DF382B"></path>
                    <path d="M50.5068633,84.6134748 C50.5068633,91.443436 44.978164,96.9806216 38.1578783,96.9806216 C31.3375925,96.9806216 25.8088932,91.443436 25.8088932,84.6134748 C25.8088932,77.7835135 31.3375925,72.2463279 38.1578783,72.2463279 C44.978164,72.2463279 50.5068633,77.7835135 50.5068633,84.6134748" id="Fill-98" fill="#FABB05"></path>
                    <path d="M123.046434,41.1308413 C123.046434,47.9608025 117.517735,53.4979882 110.697449,53.4979882 C103.877163,53.4979882 98.348464,47.9608025 98.348464,41.1308413 C98.348464,34.30088 103.877163,28.7641631 110.697449,28.7641631 C117.517735,28.7641631 123.046434,34.30088 123.046434,41.1308413" id="Fill-99" fill="#4285F4"></path>
                    <path d="M189.532406,41.1308413 C189.532406,47.9608025 184.003707,53.4979882 177.183421,53.4979882 C170.363135,53.4979882 164.834436,47.9608025 164.834436,41.1308413 C164.834436,34.30088 170.363135,28.7641631 177.183421,28.7641631 C184.003707,28.7641631 189.532406,34.30088 189.532406,41.1308413" id="Fill-100" fill="#FFFFFF"></path>
                    <path d="M13.7962062,218.299548 C13.7962062,173.360363 55.7265345,136.930153 107.450225,136.930153 C159.173916,136.930153 201.104712,173.360363 201.104712,218.299548 L13.7962062,218.299548 Z" id="Fill-101" fill="#34A853"></path>
                    <path d="M67.2607369,171.264454 C64.9035684,172.62754 61.8613829,171.811001 60.5006878,169.450443 L39.1591612,132.431969 C37.7979991,130.071411 38.6132955,127.025092 40.970464,125.662006 C43.3276324,124.299389 46.3698179,125.115459 47.730513,127.476017 L69.0720397,164.494491 C70.4332017,166.855048 69.6179053,169.901368 67.2607369,171.264454" id="Fill-102" fill="#34A853"></path>
                    <path d="M148.395194,171.264454 C146.038025,169.901368 145.222729,166.855048 146.583891,164.494491 L167.925418,127.476017 C169.286113,125.115459 172.328298,124.299389 174.685467,125.662006 C177.042635,127.025092 177.857932,130.071411 176.49677,132.431969 L155.155243,169.450443 C153.794548,171.811001 150.752362,172.62754 148.395194,171.264454" id="Fill-103" fill="#34A853"></path>
                    <path d="M78.028019,174.187449 C78.028019,179.164494 73.9991661,183.19891 69.029874,183.19891 C64.0601149,183.19891 60.031729,179.164494 60.031729,174.187449 C60.031729,169.210872 64.0601149,165.175987 69.029874,165.175987 C73.9991661,165.175987 78.028019,169.210872 78.028019,174.187449" id="Fill-104" fill="#FFFFFF"></path>
                    <path d="M157.679066,174.590749 C157.679066,179.567795 153.650213,183.602211 148.680921,183.602211 C143.711162,183.602211 139.682776,179.567795 139.682776,174.590749 C139.682776,169.614173 143.711162,165.579288 148.680921,165.579288 C153.650213,165.579288 157.679066,169.614173 157.679066,174.590749" id="Fill-105" fill="#FFFFFF"></path>
                </g>
            </g>
            <g id="Group-36" transform="translate(872.000000, 0.000000)">
                <polygon id="Fill-113" fill="#34A853" points="0 218 217 218 217 0 0 0"></polygon>
                <path d="M147,70.4727728 C147,47.0157597 127.971945,28 104.499765,28 C81.028055,28 62,47.0157597 62,70.4727728 L62,129 L146.55023,129 L147,70.4727728 Z" id="Stroke-114" stroke="#FFFFFF" stroke-width="19.611"></path>
                <polygon id="Fill-115" fill="#FABB05" points="28 183 181 183 181 75 28 75"></polygon>
                <path d="M141.351129,144 L72.6419391,144 C72.487869,144 72.3118556,143.993476 72.1162333,143.98136 C64.0018753,143.468774 58.4105318,135.613618 60.4059728,127.746347 L67.0393904,101.591853 C67.0393904,98.5163338 69.5605373,96 72.6419391,96 L141.351129,96 C144.43253,96 146.953677,98.5163338 146.953677,101.591853 L153.595032,127.777103 C155.586271,135.62853 150.003798,143.447805 141.906715,143.979497 C141.69942,143.99301 141.513136,144 141.351129,144" id="Fill-116" fill="#151515"></path>
                <path d="M39,166 L60.2434709,148.647374 C73.4201964,137.884054 89.9459015,132 107,132 L107,166 L39,166 Z" id="Fill-117" fill="#EFEFEF"></path>
                <path d="M174.982535,167 L81,167 L81,178.951776 L153.600178,194.442482 C158.658839,195.522171 163.964742,195.048704 168.659093,192.890719 C175.503245,189.744024 181.987302,182.707479 174.982535,167" id="Fill-118" fill="#E64A19"></path>
                <path d="M175,166 L153.756529,148.647374 C140.579804,137.884054 124.054099,132 107,132 L107,166 L175,166 Z" id="Fill-119" fill="#EFEFEF"></path>
                <path d="M39.0175676,167 L133,167 L133,178.951776 L60.4000074,194.442482 C55.3413275,195.522171 50.0354031,195.048704 45.3410344,192.890719 C38.4963873,189.744024 32.0127734,182.707479 39.0175676,167" id="Fill-120" fill="#FF8A65"></path>
                <path d="M80,103.5 C80,110.403579 74.4034732,116 67.499763,116 C60.5965268,116 55,110.403579 55,103.5 C55,96.5964207 60.5965268,91 67.499763,91 C74.4034732,91 80,96.5964207 80,103.5" id="Fill-121" fill="#FF8A65"></path>
                <path d="M145,100 C145,121.537076 127.537076,139 106,139 C84.4629245,139 67,121.537076 67,100 C67,97.2524911 67.2840796,94.5696737 67.8273935,91.9815494 C71.5227718,74.2893924 87.2104333,61 106,61 C126.195432,61 142.810806,76.3538915 144.800769,96.0308552 C144.930152,97.3321834 145,98.6588257 145,100" id="Fill-122" fill="#FF8A65"></path>
                <path d="M101,105 C101,107.761741 98.761381,110 96.000232,110 C93.238619,110 91,107.761741 91,105 C91,102.238259 93.238619,100 96.000232,100 C98.761381,100 101,102.238259 101,105" id="Fill-123" fill="#151515"></path>
                <path d="M125,105 C125,107.761741 122.761381,110 120.000232,110 C117.238619,110 115,107.761741 115,105 C115,102.238259 117.238619,100 120.000232,100 C122.761381,100 125,102.238259 125,105" id="Fill-124" fill="#151515"></path>
                <path d="M107.5,115 C104.931877,115 102.756281,113.493868 102.054476,111.43289 C101.81199,110.720065 102.408766,110 103.254804,110 L103.260612,110 C103.832705,110 104.304608,110.347471 104.474978,110.828223 C104.8767,111.961761 106.080901,112.784875 107.5,112.784875 C108.919099,112.784875 110.1233,111.961761 110.525022,110.828223 C110.695392,110.347471 111.167295,110 111.739388,110 L111.745196,110 C112.591234,110 113.18801,110.720065 112.945524,111.43289 C112.243719,113.493868 110.068123,115 107.5,115" id="Fill-125" fill="#871E0C"></path>
                <path d="M89.0132972,103.760162 C87.6430373,103.223666 86.8668234,101.919622 87.0188653,100.610764 C87.0715857,100.157849 87.5738418,99.8769108 88.0252603,100.053263 L88.0285553,100.054576 C88.3335805,100.174478 88.4969196,100.468982 88.4649108,100.775301 C88.389596,101.498652 88.821715,102.214563 89.5791002,102.511255 C90.3364853,102.80751 91.1894262,102.595274 91.6935652,102.039961 C91.9072711,101.804533 92.2480709,101.706949 92.5530961,101.826851 L92.5563911,101.828164 C93.0078096,102.004516 93.142435,102.535323 92.8308197,102.886715 C91.9293948,103.901944 90.3835571,104.296658 89.0132972,103.760162" id="Fill-126" fill="#151515"></path>
                <path d="M115,105 C115,107.761741 117.238619,110 119.999768,110 C122.761381,110 125,107.761741 125,105 C125,102.238259 122.761381,100 119.999768,100 C117.238619,100 115,102.238259 115,105" id="Fill-127" fill="#151515"></path>
                <path d="M126.986703,103.760162 C128.356963,103.223666 129.133177,101.919622 128.981135,100.610764 C128.928414,100.157849 128.426158,99.8769108 127.97474,100.053263 L127.971445,100.054576 C127.666419,100.174478 127.50308,100.468982 127.535089,100.775301 C127.610404,101.498652 127.178285,102.214563 126.4209,102.511255 C125.663515,102.80751 124.810574,102.595274 124.306435,102.039961 C124.092729,101.804533 123.751929,101.706949 123.446433,101.826851 L123.443609,101.828164 C122.99219,102.004516 122.857565,102.535323 123.16918,102.886715 C124.070605,103.901944 125.616443,104.296658 126.986703,103.760162" id="Fill-128" fill="#151515"></path>
                <polyline id="Stroke-129" stroke="#FFFFFF" stroke-width="4.445" stroke-linecap="round" stroke-linejoin="round" points="162 136.530884 167.476284 142 182 128"></polyline>
                <path d="M190.499557,138.326585 C184.520277,146.610547 172.957433,148.478828 164.673442,142.49957 C156.389451,136.519838 154.521163,124.95751 160.500443,116.673549 C166.479723,108.389114 178.042567,106.521306 186.326558,112.500564 C194.610549,118.479822 196.478837,130.042624 190.499557,138.326585" id="Fill-130" fill="#2C66BF"></path>
                <path d="M117.931187,167 L132.756892,167 L135.569969,169.59063 C142.341275,175.826734 138.487789,187.086699 129.250832,187.895322 C127.371082,188.059624 125.38285,188.040294 123.306709,187.767378 L104,183.677322 L117.931187,167 Z" id="Fill-131" fill="#FF8A65"></path>
                <path d="M141.538326,172 L126.461674,172 C125.107962,172 124,170.875259 124,169.5 C124,168.125212 125.107962,167 126.461674,167 L141.538326,167 C142.892038,167 144,168.125212 144,169.5 C144,170.875259 142.892038,172 141.538326,172" id="Fill-132" fill="#FF8A65"></path>
                <path d="M157,105.5 C157,112.403579 151.403473,118 144.499763,118 C137.596527,118 132,112.403579 132,105.5 C132,98.5964207 137.596527,93 144.499763,93 C151.403473,93 157,98.5964207 157,105.5" id="Fill-133" fill="#FF8A65"></path>
                <path d="M144,95.7840935 C142.025414,76.2457367 125.538904,61 105.49907,61 C86.8547023,61 69.322522,74.5825908 67,95.7840935 C67,95.7840935 98.0044824,100.012478 105.5,71.0445075 C105.5,71.0445075 111.819139,96.6042622 144,95.7840935" id="Fill-134" fill="#151515"></path>
                <polyline id="Stroke-135" stroke="#FFFFFF" stroke-width="8.405" stroke-linecap="round" stroke-linejoin="round" points="165 129.322092 172.113639 136 186 121"></polyline>
            </g>
            <g id="Group-46" transform="translate(432.000000, 437.000000)">
                <g id="Group-14">
                    <polygon id="Fill-1" fill="#FABB05" points="0 218.475793 218.577409 218.475793 218.577409 0.468736617 0 0.468736617"></polygon>
                    <g id="Group-13" transform="translate(0.000000, 0.044530)">
                        <path d="M161.565032,182.294014 L44.4229462,182.294014 C36.9096117,182.294014 30.8187633,176.158825 30.8187633,168.590794 L30.8187633,52.9227077 L161.565032,52.9227077 L161.565032,182.294014 Z" id="Fill-2" fill="#EFECEC"></path>
                        <path d="M169.409218,182.294014 L56.5010661,182.294014 L56.5010661,35.5794529 L187.247335,35.5794529 L187.247335,164.348067 C187.247335,174.259326 179.260925,182.294014 169.409218,182.294014" id="Fill-4" fill="#FFFFFF"></path>
                        <mask id="mask-2" fill="white">
                            <use xlink:href="#path-1"></use>
                        </mask>
                        <g id="Clip-7"></g>
                        <polygon id="Fill-6" fill="#2C66BF" mask="url(#mask-2)" points="74.2452026 89.9529004 169.503198 89.9529004 169.503198 63.2349133 74.2452026 63.2349133"></polygon>
                        <polygon id="Fill-8" fill="#2C66BF" mask="url(#mask-2)" points="74.2452026 89.9529004 169.503198 89.9529004 169.503198 82.9218512 74.2452026 82.9218512"></polygon>
                        <polygon id="Fill-9" fill="#4285F4" mask="url(#mask-2)" points="74.2452026 110.108575 169.503198 110.108575 169.503198 103.077526 74.2452026 103.077526"></polygon>
                        <polygon id="Fill-10" fill="#4285F4" mask="url(#mask-2)" points="74.2452026 129.795513 169.503198 129.795513 169.503198 122.764464 74.2452026 122.764464"></polygon>
                        <polygon id="Fill-11" fill="#4285F4" mask="url(#mask-2)" points="74.2452026 149.951187 169.503198 149.951187 169.503198 142.920138 74.2452026 142.920138"></polygon>
                        <path d="M56.6069538,160.73213 C56.6069538,160.73213 57.7816263,181.127681 42.9594883,182.294014 L77.0469083,182.294014 L56.6069538,160.73213 Z" id="Fill-12" fill="#FFFFFF" mask="url(#mask-2)"></path>
                    </g>
                </g>
            </g>
            <g id="Group-47" transform="translate(0.000000, 437.000000)">
                <g id="Group-17">
                    <polygon id="Fill-1" fill="#34A853" points="0 218.475793 217.576631 218.475793 217.576631 0.468736617 0 0.468736617"></polygon>
                    <polygon id="Fill-2" fill="#EFEFEF" points="43.1116052 186.814979 170.733296 186.814979 170.733296 28.878863 43.1116052 28.878863"></polygon>
                    <polygon id="Fill-3" fill="#FFFFFF" points="61.592485 161.709445 152.252884 161.709445 152.252884 68.2288332 61.592485 68.2288332"></polygon>
                    <g id="Group-16" transform="translate(0.000000, 0.044530)">
                        <path d="M118.868617,94.021628 C118.868617,100.632221 113.520132,105.991286 106.922591,105.991286 C100.32505,105.991286 94.9765652,100.632221 94.9765652,94.021628 C94.9765652,87.4110355 100.32505,82.0519698 106.922591,82.0519698 C113.520132,82.0519698 118.868617,87.4110355 118.868617,94.021628" id="Fill-4" fill="#2C66BF"></path>
                        <path d="M122.710984,125.902983 L91.1341983,125.902983 C85.6289966,125.902983 81.1244429,121.389518 81.1244429,115.873426 C81.1244429,110.356865 85.6289966,105.8434 91.1341983,105.8434 L122.710984,105.8434 C128.216185,105.8434 132.720739,110.356865 132.720739,115.873426 C132.720739,121.389518 128.216185,125.902983 122.710984,125.902983" id="Fill-6" fill="#2C66BF"></path>
                        <mask id="mask-4" fill="white">
                            <use xlink:href="#path-3"></use>
                        </mask>
                        <g id="Clip-9"></g>
                        <polygon id="Fill-8" fill="#2C66BF" mask="url(#mask-4)" points="81.1245365 154.93667 132.720833 154.93667 132.720833 115.873098 81.1245365 115.873098"></polygon>
                        <polygon id="Fill-10" fill="#2C66BF" mask="url(#mask-4)" points="101.8743 115.873098 111.970601 115.873098 111.970601 93.8391957 101.8743 93.8391957"></polygon>
                        <polygon id="Fill-11" fill="#4285F4" mask="url(#mask-4)" points="61.592485 169.706092 152.252884 169.706092 152.252884 147.252671 61.592485 147.252671"></polygon>
                        <path d="M186.959279,183.295282 C178.674812,194.795735 162.654618,197.389255 151.176872,189.088398 C139.699593,180.787541 137.110726,164.735187 145.395194,153.235203 C153.679661,141.73475 169.700322,139.14123 181.177601,147.442087 C192.655348,155.742944 195.243747,171.794829 186.959279,183.295282" id="Fill-12" fill="#FABB05" mask="url(#mask-4)"></path>
                        <polyline id="Stroke-13" stroke="#FFFFFF" stroke-width="11.156" stroke-linecap="round" stroke-linejoin="round" mask="url(#mask-4)" points="150.18965 169.332228 159.777907 177.997293 178.4955 158.533005"></polyline>
                        <path d="M129.135107,57.3666121 L84.7103558,57.3666121 C81.7556605,57.3666121 79.3380124,54.9441812 79.3380124,51.9836408 L79.3380124,50.7536759 C79.3380124,47.7931354 81.7556605,45.3707046 84.7103558,45.3707046 L129.135107,45.3707046 C132.089802,45.3707046 134.50745,47.7931354 134.50745,50.7536759 L134.50745,51.9836408 C134.50745,54.9441812 132.089802,57.3666121 129.135107,57.3666121" id="Fill-14" fill="#34A853" mask="url(#mask-4)"></path>
                        <polygon id="Fill-15" fill="#FABB05" mask="url(#mask-4)" points="90.9378112 51.3683771 122.907558 51.3683771 122.907558 0.423737901 90.9378112 0.423737901"></polygon>
                    </g>
                </g>
            </g>
            <g id="Group-4" transform="translate(215.000000, 437.000000)">
                <polygon id="Fill-1" fill="#FFFFFF" points="0 217.576631 217.576631 217.576631 217.576631 0 0 0"></polygon>
                <path d="M108.788362,114.134555 C94.5828086,114.134555 83.0671691,102.618915 83.0671691,88.4133618 C83.0671691,74.2078082 94.5828086,62.6921687 108.788362,62.6921687 C122.993916,62.6921687 134.509555,74.2078082 134.509555,88.4133618 C134.509555,102.618915 122.993916,114.134555 108.788362,114.134555 M108.788362,39.4288554 C79.7153021,39.4288554 56.1465082,62.9971815 56.1465082,92.0702416 C56.1465082,121.14377 108.788362,178.147495 108.788362,178.147495 C108.788362,178.147495 161.430216,121.14377 161.430216,92.0702416 C161.430216,62.9971815 137.861422,39.4288554 108.788362,39.4288554" id="Fill-2" fill="#DF382B"></path>
            </g>
        </g>
    </g>
</svg>